<svg id="visual" viewBox="0 0 1400 1100" width="1400" height="1100" xmlns="http://www.w3.org/2000/svg" xmlns:xlink="http://www.w3.org/1999/xlink" version="1.1"><rect x="0" y="0" width="1400" height="1100" fill="#fff"></rect><defs><linearGradient id="grad1_0" x1="21.4%" y1="0%" x2="100%" y2="100%"><stop offset="24.545454545454547%" stop-color="#04a379" stop-opacity="1"></stop><stop offset="75.45454545454545%" stop-color="#04a379" stop-opacity="1"></stop></linearGradient></defs><defs><linearGradient id="grad1_1" x1="21.4%" y1="0%" x2="100%" y2="100%"><stop offset="24.545454545454547%" stop-color="#04a379" stop-opacity="1"></stop><stop offset="75.45454545454545%" stop-color="#ffffff" stop-opacity="1"></stop></linearGradient></defs><defs><linearGradient id="grad2_0" x1="0%" y1="0%" x2="78.6%" y2="100%"><stop offset="24.545454545454547%" stop-color="#04a379" stop-opacity="1"></stop><stop offset="75.45454545454545%" stop-color="#04a379" stop-opacity="1"></stop></linearGradient></defs><defs><linearGradient id="grad2_1" x1="0%" y1="0%" x2="78.6%" y2="100%"><stop offset="24.545454545454547%" stop-color="#ffffff" stop-opacity="1"></stop><stop offset="75.45454545454545%" stop-color="#04a379" stop-opacity="1"></stop></linearGradient></defs><g transform="translate(1400, 0)"><path d="M0 534.1C-79.5 497 -159.1 459.9 -242.5 420C-325.9 380.2 -413.3 337.5 -462.6 267.1C-511.8 196.6 -523 98.3 -534.1 0L0 0Z" fill="#99d2ba"></path><path d="M0 267.1C-39.8 248.5 -79.5 229.9 -121.2 210C-163 190.1 -206.7 168.8 -231.3 133.5C-255.9 98.3 -261.5 49.2 -267.1 0L0 0Z" fill="#04a379"></path></g><g transform="translate(0, 1100)"><path d="M0 -534.1C98.2 -522.9 196.4 -511.7 267.1 -462.6C337.8 -413.4 381 -326.4 420.9 -243C460.8 -159.6 497.5 -79.8 534.1 0L0 0Z" fill="#99d2ba"></path><path d="M0 -267.1C49.1 -261.5 98.2 -255.9 133.5 -231.3C168.9 -206.7 190.5 -163.2 210.4 -121.5C230.4 -79.8 248.7 -39.9 267.1 0L0 0Z" fill="#04a379"></path></g></svg>