<?xml version="1.0" standalone="no"?>
<svg xmlns:xlink="http://www.w3.org/1999/xlink" id="wave" style="transform:rotate(0deg); transition: 0.3s" viewBox="0 0 1440 370" version="1.1" xmlns="http://www.w3.org/2000/svg"><defs><linearGradient id="sw-gradient-0" x1="0" x2="0" y1="1" y2="0"><stop stop-color="rgba(243, 106, 62, 1)" offset="0%"/><stop stop-color="rgba(255, 179, 11, 1)" offset="100%"/></linearGradient></defs><path style="transform:translate(0, 0px); opacity:1" fill="url(#sw-gradient-0)" d="M0,111L40,117.2C80,123,160,136,240,160.3C320,185,400,222,480,209.7C560,197,640,136,720,98.7C800,62,880,49,960,49.3C1040,49,1120,62,1200,86.3C1280,111,1360,148,1440,160.3C1520,173,1600,160,1680,172.7C1760,185,1840,222,1920,240.5C2000,259,2080,259,2160,246.7C2240,234,2320,210,2400,172.7C2480,136,2560,86,2640,55.5C2720,25,2800,12,2880,30.8C2960,49,3040,99,3120,148C3200,197,3280,247,3360,277.5C3440,308,3520,321,3600,314.5C3680,308,3760,284,3840,234.3C3920,185,4000,111,4080,111C4160,111,4240,185,4320,228.2C4400,271,4480,284,4560,271.3C4640,259,4720,222,4800,203.5C4880,185,4960,185,5040,203.5C5120,222,5200,259,5280,265.2C5360,271,5440,247,5520,240.5C5600,234,5680,247,5720,252.8L5760,259L5760,370L5720,370C5680,370,5600,370,5520,370C5440,370,5360,370,5280,370C5200,370,5120,370,5040,370C4960,370,4880,370,4800,370C4720,370,4640,370,4560,370C4480,370,4400,370,4320,370C4240,370,4160,370,4080,370C4000,370,3920,370,3840,370C3760,370,3680,370,3600,370C3520,370,3440,370,3360,370C3280,370,3200,370,3120,370C3040,370,2960,370,2880,370C2800,370,2720,370,2640,370C2560,370,2480,370,2400,370C2320,370,2240,370,2160,370C2080,370,2000,370,1920,370C1840,370,1760,370,1680,370C1600,370,1520,370,1440,370C1360,370,1280,370,1200,370C1120,370,1040,370,960,370C880,370,800,370,720,370C640,370,560,370,480,370C400,370,320,370,240,370C160,370,80,370,40,370L0,370Z"/></svg>