<?xml version="1.0" standalone="no"?>
<!DOCTYPE svg PUBLIC "-//W3C//DTD SVG 1.1//EN" "http://www.w3.org/Graphics/SVG/1.1/DTD/svg11.dtd" >
<svg xmlns="http://www.w3.org/2000/svg">
<metadata>Generated by IcoMoon</metadata>
<defs>
<font id="icomoon" horiz-adv-x="1024">
<font-face units-per-em="1024" ascent="960" descent="-64" />
<missing-glyph horiz-adv-x="1024" />
<glyph unicode="&#x20;" horiz-adv-x="512" d="" />
<glyph unicode="&#xe900;" glyph-name="search" d="M1017.75-27.584l-311.572 311.574c64.716 71.854 104.49 166.592 104.49 270.678-0.002 223.498-181.834 405.332-405.334 405.332s-405.334-181.834-405.334-405.334 181.834-405.334 405.334-405.334c104.086 0 198.822 39.774 270.678 104.49l311.572-311.572c4.166-4.166 9.626-6.25 15.084-6.25s10.916 2.084 15.084 6.25c8.332 8.334 8.332 21.834-0.002 30.166zM405.334 192c-199.958 0-362.666 162.688-362.666 362.666s162.708 362.668 362.666 362.668 362.666-162.688 362.666-362.668-162.708-362.666-362.666-362.666z" />
<glyph unicode="&#xe901;" glyph-name="search-interface-symbol" d="M1014.294-8.29l-264.38 260.155c69.233 75.219 111.771 174.698 111.771 284.164-0.033 234.168-192.91 423.971-430.854 423.971s-430.821-189.803-430.821-423.971 192.877-423.971 430.821-423.971c102.808 0 197.102 35.56 271.168 94.678l265.406-261.181c12.932-12.74 33.927-12.74 46.859 0 12.962 12.738 12.962 33.415 0.030 46.155zM430.831 177.289c-201.326 0-364.533 160.613-364.533 358.74s163.207 358.74 364.533 358.74c201.328 0 364.533-160.613 364.533-358.74s-163.205-358.74-364.533-358.74z" />
<glyph unicode="&#xe902;" glyph-name="call" d="M652.749 712.934c3.838 0 7.678 1.464 10.608 4.394l74.21 74.21c5.858 5.858 5.858 15.356 0 21.212-5.86 5.858-15.356 5.858-21.214 0l-74.212-74.21c-5.858-5.858-5.858-15.356 0-21.212 2.93-2.93 6.77-4.394 10.608-4.394zM603.113 762.566c8.286 0 15 6.716 15 15v68.398c0 8.284-6.714 15-15 15s-15-6.716-15-15v-68.396c0-8.286 6.716-15.002 15-15.002zM687.381 678.299c0-8.284 6.714-15 15-15h68.398c8.286 0 15 6.716 15 15s-6.714 15-15 15h-68.398c-8.284 0-15-6.716-15-15zM902.214 361.221c-1.414 16.5-10.010 31.454-23.584 41.032-49.266 34.752-92.902 78.668-129.704 130.532-9.55 13.462-24.452 21.978-40.876 23.364-16.382 1.376-32.442-4.494-44.070-16.122l-53.868-53.868s-0.002-0.002-0.002-0.002-0.002-0.002-0.002-0.002l-21.724-21.724c-6.846-6.848-17.062-9.132-26.024-5.818-63.852 23.616-137.736 97.496-161.334 161.332-3.312 8.958-1.026 19.17 5.82 26.018l75.6 75.6c11.626 11.626 17.502 27.69 16.122 44.070-1.384 16.426-9.9 31.326-23.364 40.878-21.48 15.242-41.852 31.866-60.552 49.412-6.040 5.668-15.532 5.366-21.202-0.674-5.668-6.042-5.366-15.534 0.674-21.202 19.692-18.476 41.128-35.972 63.718-52 6.242-4.428 10.188-11.33 10.83-18.932 0.638-7.558-2.074-14.97-7.44-20.336l-43.264-43.264-180.092 180.090 42.882 42.882c5.444 5.442 12.666 8.074 20.32 7.422 7.662-0.658 14.614-4.662 19.078-10.988 9.684-13.728 20.242-27.292 31.38-40.318 5.384-6.298 14.854-7.036 21.148-1.652 6.296 5.384 7.036 14.852 1.652 21.148-10.538 12.322-20.518 25.146-29.668 38.116-9.576 13.574-24.53 22.17-41.030 23.584-16.374 1.396-32.458-4.464-44.094-16.1l-93.756-93.758c-31.192-31.194-47.142-74.308-43.758-118.292 1.924-24.996 10.194-49.43 23.916-70.664 107.79-166.77 235.524-303.459 380.543-407.475l-72.758-28.964c-30.836-12.276-50.762-41.654-50.762-74.844 0-44.418 36.136-80.554 80.556-80.554h258.807c27.876 0 50.556-22.68 50.556-50.556v-2.036c0-27.876-22.68-50.556-50.556-50.556h-577.229c-8.284 0-15-6.714-15-15s6.716-15 15-15h577.229c44.42 0 80.556 36.136 80.556 80.556v2.036c0 44.42-36.136 80.556-80.556 80.556h-258.807c-27.876 0-50.556 22.678-50.556 50.554 0 20.83 12.504 39.268 31.858 46.972l91.14 36.282c16.034-10.84 32.268-21.296 48.704-31.354 20.088-12.292 43.080-19.814 66.486-21.756 0.422-0.036 0.842-0.050 1.258-0.050 7.722 0 14.282 5.926 14.932 13.76 0.684 8.256-5.454 15.504-13.708 16.19-18.764 1.554-37.198 7.588-53.308 17.448-173.752 106.324-324.881 257.751-449.189 450.077-11.020 17.050-17.66 36.65-19.2 56.68-2.71 35.24 10.068 69.786 35.060 94.778l29.662 29.662 180.092-180.090-11.124-11.124c-15.102-15.104-20.104-37.726-12.746-57.634 26.646-72.074 106.974-152.404 179.068-179.066 19.914-7.364 42.54-2.366 57.644 12.742l11.12 11.118 180.090-180.090-29.662-29.66c-12.51-12.51-27.29-21.944-43.93-28.036-7.78-2.848-11.778-11.462-8.93-19.242 2.226-6.078 7.97-9.848 14.088-9.848 1.71 0 3.454 0.294 5.154 0.918 20.768 7.604 39.214 19.376 54.832 34.992l40.25 40.25c0.006 0.006 0.014 0.012 0.020 0.018s0.012 0.014 0.018 0.020l53.47 53.47c11.634 11.634 17.5 27.706 16.096 44.092zM864.902 338.341l-42.882-42.88-180.090 180.090 43.264 43.264c5.368 5.366 12.786 8.070 20.334 7.44 7.604-0.642 14.504-4.588 18.932-10.83 38.774-54.644 84.826-100.968 136.876-137.686 6.324-4.462 10.33-11.418 10.986-19.078 0.658-7.662-1.976-14.88-7.42-20.32z" />
<glyph unicode="&#xe903;" glyph-name="ecommerce" d="M662 93.63v60h-120v60h231.624l120 360h68.376v60h-135.582l-230.992 288.74-46.852-37.482 201.008-251.26h-475.164l201.008 251.26-46.852 37.482-230.992-288.74h-135.582v-60h68.376l120-360h231.624v-60h-120v-60h-362v-60h362v-60h300v60h362v60zM193.624 573.63h636.754l-100-300h-436.754zM602 33.63h-180v60h180zM482 513.63h60v-180h-60zM362 513.63h60v-180h-60zM602 513.63h60v-180h-60z" />
<glyph unicode="&#xe904;" glyph-name="marketing-strategy" d="M432 80h-16v64c0 8.844-7.164 16-16 16h-18.575l-44.018 249.433 72.585 58.067c0.275 0.221 0.438 0.527 0.696 0.763 0.485 0.441 0.875 0.928 1.303 1.426 0.842 0.981 1.547 2.012 2.12 3.144 0.29 0.568 0.565 1.106 0.787 1.711 0.554 1.513 0.867 3.077 0.947 4.694 0.014 0.268 0.154 0.491 0.154 0.762v144c0 8.844-7.164 16-16 16h-64c-8.836 0-16-7.156-16-16v-48h-32v48c0 8.844-7.164 16-16 16h-64c-8.836 0-16-7.156-16-16v-48h-32v48c0 8.844-7.164 16-16 16h-64c-8.836 0-16-7.156-16-16v-144c0-0.271 0.141-0.494 0.154-0.762 0.080-1.617 0.394-3.182 0.947-4.694 0.222-0.604 0.497-1.143 0.787-1.711 0.573-1.133 1.278-2.163 2.12-3.144 0.428-0.498 0.817-0.984 1.303-1.426 0.258-0.235 0.421-0.542 0.696-0.763l72.585-58.067-44.017-249.433h-18.575c-8.836 0-16-7.156-16-16v-64h-16c-8.836 0-16-7.156-16-16v-80c0-8.844 7.164-16 16-16h384c8.836 0 16 7.156 16 16v80c0 8.844-7.164 16-16 16zM96 608h32v-48c0-8.844 7.164-16 16-16h64c8.836 0 16 7.156 16 16v48h32v-48c0-8.844 7.164-16 16-16h64c8.836 0 16 7.156 16 16v48h32v-112h-288zM354.391 464l-40-32h-148.781l-40 32zM173.422 400h133.156l42.352-240h-217.86zM96 128h288v-48h-288zM416 0h-352v48h352zM992 784c0 79.406-64.602 144-144 144s-144-64.594-144-144 64.602-144 144-144 144 64.594 144 144zM848 672c-61.758 0-112 50.25-112 112s50.242 112 112 112 112-50.25 112-112-50.242-112-112-112zM816.398 760.812l-20.805 20.812-22.625-22.625 32-32c3.125-3.125 7.219-4.688 11.312-4.688 4.039 0 8.078 1.516 11.195 4.563l95.719 93.688-22.391 22.875zM718.711 53.312l2.437-31.906c16.141 1.234 32.336 2.688 48.305 4.391l-3.391 31.812c-15.656-1.672-31.523-3.094-47.352-4.297zM639.445 48.937l1.188-31.969c15.664 0.578 31.867 1.328 48.305 2.297l-1.859 31.937c-16.219-0.937-32.188-1.687-47.633-2.265zM559.922 47.25l0.203-32c14.766 0.094 31.023 0.312 48.289 0.719l-0.75 32c-17.078-0.406-33.148-0.625-47.742-0.719zM479.484 16.016s18.523-0.609 48.43-0.781l0.188 32c-29.297 0.172-47.469 0.75-47.586 0.75zM788.688 587.312l22.625-22.625 20.688 20.688v-105.375c0-41.859-54.32-56.219-131.063-71.937-69.289-14.188-140.937-28.859-140.937-88.063 0-59.016 93.156-79.453 201.023-103.094 88.648-19.437 198.977-43.625 198.977-88.906 0-13.375-15.797-46.656-162.156-66.516l1.104-8.125 0.591-7.781 2.133-15.859-1.672 15.906 2.156-15.859c127.742 17.344 189.844 49.484 189.844 98.234 0 71.031-113.937 96.016-224.125 120.156-78.359 17.187-175.875 38.562-175.875 71.844 0 30.797 45.672 42.453 115.359 56.719 73.422 15.031 156.641 32.063 156.641 103.281v105.375l20.688-20.688 22.625 22.625-48 48c-3.125 3.125-7.219 4.688-11.312 4.688s-8.188-1.563-11.312-4.688z" />
<glyph unicode="&#xe905;" glyph-name="digital-marketing" d="M137.8 105.18v0.38h22.020c0.302 0.002 0.659 0.002 1.017 0.002 39.4 0 76.28-10.793 107.843-29.583l-0.97 0.535c1.176-0.68 2.332-1.4 3.482-2.11 37.946-23.554 80.652-25.504 124.728-25.504h117.46c0.006 0 0.014 0 0.021 0 28.773 0 52.098 23.325 52.098 52.098 0 12.558-4.443 24.078-11.843 33.074l0.072-0.090c18.068 8.492 30.353 26.541 30.353 47.458 0 16.376-7.529 30.993-19.315 40.578l-0.096 0.076q1.924 1.6 3.716 3.382c9.696 9.681 15.694 23.063 15.694 37.846 0 16.232-7.232 30.775-18.649 40.583l-0.071 0.060c11.44 9.183 18.701 23.165 18.701 38.844 0 27.444-22.248 49.692-49.692 49.692-0.003 0-0.006 0-0.010 0h-44.66v136.92h10.3l277.634-100.978c1.222-0.46 2.634-0.726 4.109-0.726 5.064 0 9.395 3.14 11.151 7.579l0.028 0.081c15.143 37.702 26.777 81.619 32.887 127.285l0.313 2.859h10.234c39.709 0 71.9 32.191 71.9 71.9s-32.191 71.9-71.9 71.9v0h-10.234c-6.423 48.517-18.057 92.427-34.521 133.896l1.321-3.772c-1.79 4.518-6.122 7.655-11.186 7.655-1.472 0-2.882-0.265-4.185-0.75l0.083 0.027-277.634-100.976h-119.66c-34.929-0.077-63.238-28.309-63.44-63.201v-89.619c0.226-34.82 28.414-62.982 63.223-63.164h0.017v-34.136h-83.12c-33.138 0-55.846-14.246-69.42-43.54-5.417-11.513-12.801-21.247-21.814-29.173l-0.098-0.085c-15.977-14.079-37.076-22.679-60.183-22.702h-7.705v9.58c-0.024 20.171-16.369 36.516-36.538 36.54h-56.002c-20.171-0.024-36.516-16.369-36.54-36.538v-304.182c0.030-20.165 16.374-36.502 36.538-36.52h56.002c20.166 0.018 36.51 16.355 36.54 36.517v0.003zM828.708 685.32h7.652c26.454 0 47.9-21.446 47.9-47.9s-21.446-47.9-47.9-47.9v0h-7.652c1.374 15.924 2.092 31.972 2.092 47.88s-0.718 32-2.092 47.92zM774.686 819.764c20.341-54.214 32.114-116.869 32.114-182.274 0-20.642-1.173-41.009-3.455-61.040l0.227 2.45c-5.17-45.943-15.338-87.851-30.089-127.531l1.203 3.693-45.886 16.68c15.854 49.546 24.992 106.539 24.992 165.667s-9.138 116.121-26.078 169.645l1.086-3.978zM514.12 725l192.092 69.86c14.959-47.098 23.58-101.267 23.58-157.45s-8.621-110.352-24.611-161.258l1.031 3.808-192.092 69.864zM380.34 721.4h109.78v-27.22h-147.258c5.33 15.91 20.083 27.179 37.473 27.22h0.005zM340.9 670.18h149.22v-20.76h-149.22zM340.9 625.42h149.22v-20.78h-149.22zM342.852 580.64h147.268v-27.22h-109.78c-17.398 0.041-32.153 11.309-37.407 26.941l-0.081 0.279zM465.7 529.42v-136.92h-61.56v136.92zM32.72 105.18v304.18c0.008 6.922 5.618 12.532 12.539 12.54h56.001c6.923-0.007 12.533-5.617 12.54-12.539v-190.447c0-6.627 5.373-12 12-12s12 5.373 12 12v0 156.866h7.7c29.191 0.024 55.841 10.884 76.149 28.776l-0.127-0.11c11.58 10.183 20.964 22.555 27.558 36.505l0.29 0.683c6.8 14.66 17.764 29.646 47.65 29.646h83.12v-76.746c-5.684 2.9-9.671 8.414-10.392 14.914l-0.008 0.086c-0.633 6.088-5.737 10.794-11.939 10.794-6.627 0-12-5.373-12-12 0-0.491 0.030-0.976 0.087-1.451l-0.006 0.057c2.409-21.706 20.652-38.434 42.802-38.434 0.020 0 0.040 0 0.059 0h145.617c14.199 0 25.71-11.511 25.71-25.71s-11.511-25.71-25.71-25.71v0l-83.9-0.18c-6.627 0-12-5.373-12-12s5.373-12 12-12v0h80.040c16.326 0 29.56-13.234 29.56-29.56s-13.234-29.56-29.56-29.56h-61.64c-6.627 0-12-5.373-12-12s5.373-12 12-12v0h62.9c15.635 0 28.31-12.675 28.31-28.31s-12.675-28.31-28.31-28.31h-63.44c-6.627 0-12-5.373-12-12s5.373-12 12-12v0h45.060c15.536 0 28.13-12.594 28.13-28.13s-12.594-28.13-28.13-28.13h-117.46c-40.47 0-79.494 1.676-112.082 21.902-1.362 0.842-2.724 1.684-4 2.418-34.059 20.326-75.118 32.342-118.982 32.342-0.364 0-0.728-0.001-1.092-0.002h-21.964v36.146c0 6.627-5.373 12-12 12s-12-5.373-12-12v0-60.526c-0.014-6.916-5.622-12.518-12.54-12.52h-56c-6.918 0.002-12.526 5.604-12.54 12.519v0.001zM1003.28 649.42h-67.46c-6.627 0-12-5.373-12-12s5.373-12 12-12v0h67.46c6.627 0 12 5.373 12 12s-5.373 12-12 12v0zM911.21 697.778c0 0 0.001 0 0.001 0 2.237 0 4.331 0.615 6.121 1.686l-0.054-0.030 62.262 36.58c3.568 2.124 5.922 5.961 5.922 10.347 0 6.628-5.373 12.001-12.001 12.001-2.241 0-4.339-0.614-6.134-1.684l0.055 0.030-62.26-36.582c-3.569-2.123-5.924-5.961-5.924-10.348 0-6.627 5.373-12 12-12 0.004 0 0.008 0 0.013 0h-0.001zM977.906 537.696l-62.26 33.96c-1.659 0.922-3.639 1.465-5.746 1.465-6.628 0-12.001-5.373-12.001-12.001 0-4.521 2.5-8.459 6.193-10.505l0.062-0.031 62.26-33.96c1.659-0.922 3.639-1.465 5.746-1.465 6.628 0 12.001 5.373 12.001 12.001 0 4.521-2.5 8.459-6.193 10.505l-0.062 0.031zM671.32 761.938l-12.98-4.72c-4.717-1.689-8.030-6.119-8.030-11.324 0-6.627 5.373-12 12-12 1.52 0 2.974 0.283 4.313 0.798l-0.082-0.028 12.98 4.718c4.648 1.725 7.9 6.122 7.9 11.278 0 6.627-5.373 12-12 12-1.471 0-2.881-0.265-4.183-0.749l0.083 0.027zM624.578 744.938l-90.020-32.74c-4.648-1.725-7.9-6.122-7.9-11.278 0-6.627 5.373-12 12-12 1.471 0 2.881 0.265 4.183 0.749l-0.083-0.027 90.020 32.74c4.648 1.725 7.9 6.122 7.9 11.278 0 6.627-5.373 12-12 12-1.471 0-2.881-0.265-4.183-0.749l0.083 0.027z" />
<glyph unicode="&#xe906;" glyph-name="chat" d="M298 882c-6.627 0-12-5.373-12-12v0-6c0-6.627 5.373-12 12-12s12 5.373 12 12v0 6c0 6.627-5.373 12-12 12v0zM298 836c-6.627 0-12-5.373-12-12v0-102c0-6.627 5.373-12 12-12s12 5.373 12 12v0 102c0 6.627-5.373 12-12 12v0zM449.77 772.622c8.725 8.159 14.163 19.74 14.163 32.591 0 23.248-17.796 42.34-40.508 44.397l-0.173 0.013-0.024 10.568c-0.028 6.531-5.329 11.815-11.864 11.815-0.048 0-0.096 0-0.143-0.001h-0.021c-0.036 0-0.078 0.001-0.12 0.001-6.548 0-11.856-5.308-11.856-11.856 0-0.004 0-0.009 0-0.013v0.001l0.024-10.454-9.15 0.020-0.024 10.432c-0.023 6.561-5.346 11.87-11.91 11.87-0.032 0-0.063 0-0.095 0h-0.021c-0.026 0-0.057 0-0.088 0-6.564 0-11.886-5.322-11.886-11.886 0-0.006 0-0.013 0-0.019v0.001l0.024-10.472-9.86 0.010c-6.521-0.009-11.804-5.297-11.804-11.819 0-6.527 5.292-11.819 11.819-11.819 0.005 0 0.011 0 0.016 0h0.023l5.988-0.156 0.232-106.544-5.986-0.056c-0.108 0.004-0.234 0.006-0.361 0.006-6.422 0-11.628-5.206-11.628-11.628s5.206-11.628 11.628-11.628c0.135 0 0.27 0.002 0.405 0.007l-0.020-0.001h0.026l9.86-0.378 0.022-9.586c0.009-6.631 5.372-12.006 11.997-12.036h0.027c0.030 0 0.065 0 0.1 0 6.559 0 11.876 5.317 11.876 11.876 0 0.005 0 0.010 0 0.015v-0.001l-0.022 9.454 9.152-0.014 0.020-9.438c0.020-6.572 5.353-11.892 11.928-11.892 0.025 0 0.051 0 0.076 0h0.020c0.021 0 0.045 0 0.070 0 6.576 0 11.906 5.33 11.906 11.906 0 0.006 0 0.013 0 0.019v-0.001l-0.020 9.67c22.794 2.162 40.484 21.207 40.484 44.384 0 12.348-5.022 23.524-13.134 31.596l-0.002 0.002c-0.374 0.372-0.782 0.69-1.166 1.046zM386.28 825.85l25 0.15h8.042c0.007 0 0.015 0 0.023 0 11.427 0 20.69-9.263 20.69-20.69 0-11.419-9.25-20.677-20.666-20.69h-0.001l-33-0.098zM434.066 725.4c-3.713-3.749-8.862-6.070-14.553-6.070-0.004 0-0.008 0-0.012 0h0.001l-33-0.070-0.090 40.946 33.036-0.214c0.119 0.003 0.259 0.004 0.399 0.004 11.165 0 20.216-9.051 20.216-20.216 0-5.629-2.301-10.721-6.013-14.386l-0.002-0.002zM705.2 818h73.14c6.622 0.007 11.987 5.377 11.987 12 0 6.627-5.373 12-12 12-0.005 0-0.009 0-0.014 0h-0.025l-73.114-0.25c-0.042 0.001-0.091 0.001-0.141 0.001-6.559 0-11.876-5.317-11.876-11.876s5.317-11.876 11.876-11.876c0.059 0 0.117 0 0.175 0.001h-0.009zM519.2 818l123.962-0.104c6.65 0.009 12.037 5.401 12.037 12.052 0 6.656-5.396 12.052-12.052 12.052-0.005 0-0.011 0-0.016 0h-0.023l-123.938-0.506c-0.074 0.002-0.162 0.003-0.25 0.003-6.489 0-11.75-5.261-11.75-11.75s5.261-11.75 11.75-11.75c0.098 0 0.197 0.001 0.295 0.004h-0.015zM778.44 786h-0.026l-146.232-0.364c-0.062 0.001-0.135 0.002-0.208 0.002-6.528 0-11.82-5.292-11.82-11.82s5.292-11.82 11.82-11.82c0.080 0 0.159 0.001 0.238 0.002l146.244 0.112c6.593 0.005 11.936 5.35 11.936 11.944 0 6.596-5.348 11.944-11.944 11.944-0.003 0-0.006 0-0.008 0v0zM519.316 762h0.026l50.82-0.216c6.681 0.007 12.095 5.426 12.095 12.108 0 6.687-5.421 12.108-12.108 12.108-0.005 0-0.009 0-0.014 0h-0.015l-50.828-0.382c-0.042 0.001-0.092 0.001-0.141 0.001-6.522 0-11.81-5.288-11.81-11.81s5.288-11.81 11.81-11.81c0.058 0 0.116 0 0.174 0.001h-0.009zM778.56 730h-0.024l-83.462-0.182c-0.042 0.001-0.091 0.001-0.141 0.001-6.578 0-11.91-5.332-11.91-11.91s5.332-11.91 11.91-11.91c0.059 0 0.117 0 0.176 0.001h0.015l83.462 0.088c6.598 0.007 11.943 5.357 11.943 11.956 0 6.603-5.353 11.956-11.956 11.956-0.005 0-0.009 0-0.014 0h0.001zM633.030 730h-0.030l-113.6-0.4c-6.511-0.007-11.787-5.288-11.787-11.8 0-6.517 5.283-11.8 11.8-11.8 0.005 0 0.009 0 0.014 0l113.623-0.036c6.633 0.006 12.008 5.384 12.008 12.018 0 6.637-5.381 12.018-12.018 12.018-0.004 0-0.007 0-0.011 0h0.001zM395.642 443.888c-17.553-0.023-31.777-14.246-31.8-31.798v-0.002c0-6.627 5.373-12 12-12s12 5.373 12 12v0c0 4.308 3.492 7.8 7.8 7.8s7.8-3.492 7.8-7.8v0c0-6.627 5.373-12 12-12s12 5.373 12 12v0c-0.022 17.554-14.246 31.778-31.798 31.8h-0.002zM309.83 400.084c6.627 0 12 5.373 12 12v0c0 17.563-14.237 31.8-31.8 31.8s-31.8-14.237-31.8-31.8v0c0-6.627 5.373-12 12-12s12 5.373 12 12v0c0 4.308 3.492 7.8 7.8 7.8s7.8-3.492 7.8-7.8v0c0-6.627 5.373-12 12-12v0zM367.364 346.386c-6.282-6.267-14.953-10.143-24.529-10.143s-18.247 3.875-24.53 10.143l0.001-0.001c-2.182 2.24-5.228 3.63-8.599 3.63-6.627 0-12-5.373-12-12 0-3.371 1.39-6.418 3.629-8.598l0.003-0.003c10.627-10.606 25.298-17.165 41.5-17.165s30.873 6.559 41.501 17.166l-0.001-0.001c2.241 2.182 3.631 5.229 3.631 8.6 0 6.627-5.373 12-12 12-3.371 0-6.417-1.39-8.597-3.628l-0.003-0.003zM812 940h-514.494c-30.515-0.004-55.278-24.628-55.506-55.090v-202.566c0.156-33.747 23.34-62.036 54.639-69.972l0.501-0.108-24.9-11.576c-2.086 2.761-5.363 4.527-9.052 4.53v0c-36.017-0.069-65.188-29.283-65.188-65.31 0-0.073 0-0.146 0-0.219v0.011-109.4c-0.012-0.203-0.020-0.439-0.020-0.678 0-1.624 0.329-3.172 0.925-4.58l-0.029 0.077c-0.704-0.4-1.558-0.832-2.236-1.3-9.104-6.309-14.991-16.702-14.991-28.47 0-19.031 15.396-34.467 34.413-34.53h0.006c1.202-44.955 25.475-83.985 61.367-105.805l0.565-0.319v-10.696h-10v0.784c-4.206-0.020-7.884-2.264-9.919-5.616l-0.029-0.052-23.138-37.516c-0.702-1.263-1.229-2.732-1.498-4.289l-0.012-0.083c-0.32-1.612-0.506-3.23-0.714-5.23h-14.632c-43.602 0.002-80.058-34.692-80.058-78.294v-145.704c0-6.628 6.356-12 12.982-12h383.706c6.268 0.060 11.326 5.155 11.326 11.432 0 0.2-0.005 0.399-0.015 0.596l0.001-0.028v145.704c0.001 0.113 0.001 0.246 0.001 0.379 0 43.033-34.885 77.918-77.918 77.918-0.166 0-0.332-0.001-0.499-0.002h-14.604c-0.2 2-0.456 3.618-0.776 5.23-0.306 1.574-0.853 2.975-1.607 4.238l0.033-0.060-22.848 37.61c-1.99 3.421-5.612 5.7-9.772 5.768h-0.010v-0.786h-10v10.696c36.421 22.156 60.649 61.197 61.785 105.978l0.003 0.162c4.541 0.044 8.856 0.963 12.8 2.596l-0.228-0.084c12.743 5.335 21.533 17.703 21.533 32.124 0 1.693-0.121 3.358-0.355 4.986l0.022-0.186c-1.42 9.824-6.822 18.167-14.486 23.471l-0.114 0.075c-3.693 2.464-8.061 4.241-12.763 5.036l-0.197 0.028v73.288c0 0.014 0 0.030 0 0.046 0 42.328-21.351 79.669-53.87 101.842l-0.426 0.274c6.098 3.6 13.912 5.668 24.022 5.668h366.274c40.262 0 74 32.082 74 72.344v184.64c0 40.262-33.738 73.016-74 73.016zM216 384.842c-0.121-0.006-0.262-0.010-0.404-0.010-1.274 0-2.479 0.294-3.552 0.817l0.048-0.021c-3.855 1.662-6.504 5.429-6.504 9.815 0 0.488 0.033 0.969 0.096 1.44l-0.006-0.055c0.415 3.018 2.057 5.588 4.398 7.23l0.034 0.022c1.045 0.701 2.332 1.119 3.716 1.119 0.778 0 1.526-0.132 2.221-0.375l-0.047 0.014zM470 404.914c0.564 0.183 1.213 0.288 1.886 0.288 1.346 0 2.593-0.421 3.618-1.138l-0.020 0.014c2.328-1.676 3.919-4.25 4.263-7.206l0.005-0.048c0.071-0.458 0.111-0.987 0.111-1.525 0-4.309-2.586-8.015-6.291-9.649l-0.067-0.027c-0.996-0.33-2.181-0.602-3.399-0.766l-0.105-0.012zM222 444.066v95.634c-0.001 0.127-0.002 0.277-0.002 0.427 0 18.107 11.565 33.513 27.711 39.233l0.291 0.090v-95.632c0.001-0.127 0.002-0.277 0.002-0.427 0-18.107-11.565-33.513-27.711-39.235l-0.291-0.090zM256.646 190.91l4.928 7.944c6.42-15.044 17.442-27.095 31.274-34.648l0.368-0.184 0.188-0.1 31.17-16.138-17-22.898-30.346 19.866c-12.805 8.418-21.142 22.719-21.142 38.967 0 2.538 0.203 5.029 0.595 7.457l-0.035-0.267zM389.246 190.588c-2.342-1.96-4.962-3.75-7.748-5.274l-0.252-0.126-38.352-19.826-38.326 19.826c-3.020 1.647-5.624 3.437-8.026 5.459l0.072-0.059c3.389 5.952 5.387 13.078 5.387 20.671 0 0.076 0 0.153-0.001 0.229v-0.012 32.152c12.048-4.272 25.943-6.741 40.415-6.741 0.206 0 0.411 0 0.616 0.001h-0.032c14.694 0.107 28.778 2.565 41.943 7.017l-0.943-0.277v-32.152c-0.002-0.149-0.003-0.324-0.003-0.5 0-7.481 1.945-14.508 5.357-20.602l-0.11 0.213zM451.952 168h15.658c0.148 0.001 0.324 0.002 0.5 0.002 29.764 0 53.892-24.128 53.892-53.892 0-0.143-0.001-0.286-0.002-0.428v0.022-133.704h-52v80.088c0 6.627-5.373 12-12 12s-12-5.373-12-12v0-80.088h-206v80.088c0 6.627-5.373 12-12 12s-12-5.373-12-12v0-80.088h-54v133.704c0 30.37 25.69 54.296 56.058 54.296h15.66c4.598-18.258 15.458-33.464 30.113-43.555l40.051-26.031c1.805-1.17 4.012-1.865 6.381-1.865 0.064 0 0.128 0.001 0.192 0.002h-0.010c3.943 0.017 7.436 1.926 9.621 4.866l0.023 0.032 22.738 30.648 22.736-30.612c2.211-2.949 5.699-4.838 9.628-4.838 2.445 0 4.72 0.731 6.617 1.987l-0.045-0.028 39.8 25.674c14.915 10.252 25.784 25.459 30.278 43.206l0.11 0.514zM424.096 198.854l4.928-7.944c0.356-2.162 0.56-4.653 0.56-7.192 0-16.247-8.336-30.548-20.965-38.858l-0.175-0.108-30.346-19.866-17 22.898 31.358 16.238c14.199 7.737 25.22 19.789 31.465 34.372l0.175 0.46zM446 363.68c0-56.885-46.115-103-103-103s-103 46.115-103 103v0 62.266c20.431 11.538 34 33.108 34 57.848 0 0.008 0 0.017 0 0.025v-0.001 6.8c9.747-6.656 21.787-10.628 34.755-10.628 0.401 0 0.802 0.004 1.201 0.011l-0.060-0.001h72.14c31.27 0 57.964-24.948 63.964-55.786zM452 502.17v-34.27c-2.28 3.26-4.645 6.118-7.218 8.775l0.018-0.019c-15.789 16.701-38.038 27.154-62.729 27.344h-72.175c-0.118-0.001-0.258-0.002-0.397-0.002-17.083 0-31.43 11.715-35.444 27.549l-0.054 0.253v43.642l36.512 16.752c3.674 1.746 8.119 3.447 12.705 4.821l0.695 0.179c12.582-50.65 47-67.052 55.324-70.294 1.641-0.908 3.592-1.456 5.668-1.49h0.010c0.087-0.002 0.19-0.004 0.292-0.004 0.519 0 1.031 0.033 1.533 0.098l-0.059-0.006c5.133 0.833 9.186 4.654 10.351 9.59l0.017 0.086c0.966 4.148 1.672 9.042 1.968 14.046l0.012 0.246c1.232 13.2 2.966 25.886 7.292 36.21 27.639-17.817 45.68-48.445 45.68-83.286 0-0.077 0-0.154 0-0.231v0.012zM862 682.344c0-27.028-22.97-48.344-50-48.344h-366.274c-59.038 0-67.414-50.894-70.116-77.4-10.574 8.090-24.698 24.334-30.088 54.424-2.424 13.094-13.717 22.892-27.313 22.976h-2.791c-27.034 0-49.418 21.316-49.418 48.344v202.544c0.211 17.228 14.226 31.112 31.484 31.112 0.008 0 0.016 0 0.023 0h514.493c27.030 0 50-21.99 50-49.016z" />
<glyph unicode="&#xe907;" glyph-name="user-experience" d="M122.32 799.012c0-8.36-6.778-15.138-15.138-15.138s-15.138 6.778-15.138 15.138c0 8.36 6.778 15.138 15.138 15.138s15.138-6.778 15.138-15.138zM188.302 799.012c0-8.36-6.778-15.138-15.138-15.138s-15.138 6.778-15.138 15.138c0 8.36 6.778 15.138 15.138 15.138s15.138-6.778 15.138-15.138zM254.286 799.012c0-8.36-6.778-15.138-15.138-15.138s-15.138 6.778-15.138 15.138c0 8.36 6.778 15.138 15.138 15.138s15.138-6.778 15.138-15.138zM626.33 554.29c-8.29 0-15.012-6.72-15.012-15.012s6.72-15.012 15.012-15.012h117.004c8.29 0 15.012 6.72 15.012 15.012s-6.72 15.012-15.012 15.012zM860.338 687.308h-234.008c-8.29 0-15.012-6.72-15.012-15.012s6.72-15.012 15.012-15.012h234.008c8.29 0 15.012 6.72 15.012 15.012s-6.722 15.012-15.012 15.012zM875.35 605.788c0 8.292-6.72 15.012-15.012 15.012h-234.008c-8.29 0-15.012-6.72-15.012-15.012s6.72-15.012 15.012-15.012h234.008c8.29 0 15.012 6.72 15.012 15.012zM983.474 347.678c-2.618 7.944-5.86 15.75-9.658 23.26 15.15 16.722 14.732 42.616-1.484 58.832l-14.526 14.526c-16.158 16.156-42.148 16.636-58.834 1.486-7.508 3.798-15.316 7.038-23.258 9.658-1.138 22.538-19.832 40.526-42.648 40.526h-20.546c-22.816 0-41.51-17.988-42.648-40.526-7.942-2.62-15.75-5.86-23.26-9.66-16.726 15.154-42.616 14.732-58.83-1.484l-14.528-14.526c-16.472-16.47-16.376-42.446-1.486-58.834-3.792-7.5-7.034-15.306-9.656-23.256-22.898-1.090-40.528-19.1-40.528-41.888v-22.072c0-22.736 17.55-40.714 40.524-41.882 2.624-7.956 5.866-15.764 9.66-23.264-15.152-16.722-14.732-42.616 1.484-58.832l14.526-14.524c16.034-16.036 41.808-16.814 58.824-1.482 7.512-3.8 15.322-7.044 23.268-9.664 1.138-22.538 19.832-40.524 42.648-40.524h20.544c22.816 0 41.51 17.986 42.648 40.524 7.942 2.62 15.75 5.862 23.26 9.66 16.744-15.15 42.694-14.658 58.832 1.484l14.526 14.526c16.214 16.212 16.638 42.104 1.484 58.832 3.796 7.508 7.038 15.316 9.658 23.262 22.538 1.138 40.526 19.832 40.526 42.648v20.542c0.004 22.82-17.984 41.514-40.522 42.652zM993.978 284.486c0-6.992-5.688-12.68-12.68-12.68l-0.302-0.002c-0.018 0-0.212 0-0.23-0.002-11.58-0.138-21.744-7.77-25.296-18.988-2.4-7.592-5.496-15.048-9.2-22.16-5.442-10.444-3.66-23.036 4.45-31.362 0.080-0.2 9.268-9.432 0.382-18.316l-14.526-14.526c-8.882-8.886-18.138 0.322-18.338 0.398-8.302 8.094-20.896 9.87-31.34 4.434-7.118-3.708-14.574-6.804-22.158-9.202-11.222-3.548-18.854-13.716-18.992-25.352-0.086-0.2-0.178-13.156-12.682-13.156h-20.546c-12.536 0-12.598 13.006-12.684 13.206-0.136 11.584-7.768 21.752-18.99 25.302-7.586 2.398-15.042 5.494-22.158 9.2-4.032 2.102-8.382 3.126-12.684 3.126-12.056 0-18.84-7.812-19.064-7.958-4.956-4.958-12.976-4.958-17.932 0l-14.528 14.526c-4.868 4.868-5.062 12.868 0.058 17.988 0.1 0.208 13.804 14.354 4.776 31.692-3.702 7.104-6.798 14.56-9.202 22.158-3.548 11.222-13.714 18.852-25.214 18.986-0.2 0.078-13.294-0.032-13.294 11.922v22.072c0 11.904 13.010 11.842 13.212 11.922 11.582 0.134 21.748 7.766 25.296 18.986 2.404 7.596 5.5 15.052 9.204 22.162 5.44 10.444 3.658 23.036-4.394 31.3-0.080 0.2-9.35 9.468-0.44 18.378l14.528 14.528c8.88 8.88 18.134-0.32 18.334-0.396 8.302-8.098 20.898-9.876 31.342-4.438 7.118 3.708 14.574 6.804 22.16 9.202 11.222 3.55 18.854 13.718 18.99 25.36 0.086 0.2 0.18 13.15 12.682 13.15h20.542c12.536 0 12.598-13.010 12.684-13.212 0.138-11.582 7.77-21.75 18.99-25.298 7.584-2.398 15.040-5.494 22.158-9.2 10.444-5.444 23.040-3.662 31.24 4.336 0.2 0.082 9.486 9.454 18.44 0.496l14.526-14.526c8.898-8.898-0.322-18.138-0.402-18.338-8.092-8.304-9.874-20.896-4.434-31.338 3.706-7.116 6.802-14.572 9.204-22.164 3.55-11.22 13.718-18.85 25.224-18.986l0.602-0.004c6.992 0 12.68-5.69 12.68-12.682v-20.544zM822.792 400.338c-58.218 0-105.582-47.364-105.582-105.582s47.364-105.582 105.582-105.582 105.582 47.364 105.582 105.582c0 58.22-47.364 105.582-105.582 105.582zM822.792 219.198c-41.664 0-75.56 33.894-75.56 75.56 0 41.664 33.896 75.56 75.56 75.56s75.56-33.894 75.56-75.56c0-41.664-33.896-75.56-75.56-75.56zM596.22 139.316h-12.238l-13.078 65.556h44.008c8.29 0 15.012 6.72 15.012 15.012s-6.72 15.012-15.012 15.012h-62.156c-0.048 0-0.094 0-0.142 0-22.114 0-484.116 0-505.302 0-9.532 0-17.288 7.754-17.288 17.286v475.624h883.7v-216.032c0-8.292 6.72-15.012 15.012-15.012s15.012 6.72 15.012 15.012v311.136c0 26.086-21.224 47.31-47.31 47.31h-849.128c-26.086 0-47.31-21.224-47.31-47.31v-570.73c0-26.086 21.224-47.31 47.31-47.31h325.534l-13.078-65.556h-12.24c-40.072 0-72.674-32.6-72.674-72.672 0-22.532 18.332-40.862 40.864-40.862h312.316c22.532 0 40.862 18.33 40.862 40.862 0 40.072-32.602 72.674-72.674 72.674zM47.31 840.196h849.126c9.532 0 17.288-7.754 17.288-17.286v-65.082h-883.702v65.082c0 9.532 7.756 17.286 17.288 17.286zM403.458 204.872h136.832l13.078-65.556h-162.988zM628.032 55.804h-312.316c-5.978 0-10.842 4.864-10.842 10.84 0 23.518 19.134 42.65 42.652 42.65h248.694c23.518 0 42.652-19.132 42.652-42.65 0-5.978-4.864-10.84-10.84-10.84zM557.778 670.678c0 12.808-10.422 23.23-23.232 23.23h-434.284c-12.81 0-23.23-10.422-23.23-23.23v-129.782c0-12.808 10.42-23.23 23.23-23.23h434.286c12.81 0 23.232 10.422 23.232 23.23v129.782zM527.756 547.688h-420.702v116.198h420.702zM100.264 463.046c-12.81 0-23.232-10.422-23.232-23.232v-129.782c0-12.808 10.422-23.23 23.232-23.23h96.304c12.81 0 23.232 10.422 23.232 23.23v129.782c0 12.81-10.422 23.232-23.232 23.232zM189.776 316.824h-82.722v116.2h82.722zM534.548 463.046h-254.662c-12.81 0-23.232-10.422-23.232-23.232v-129.782c0-12.808 10.422-23.23 23.232-23.23h254.662c12.81 0 23.232 10.422 23.232 23.23v129.782c-0.002 12.81-10.424 23.232-23.232 23.232zM527.756 316.824h-241.080v116.2h241.080z" />
<glyph unicode="&#xe908;" glyph-name="web-maintenance" d="M964 800h-48v100c0 33.084-26.916 60-60 60h-688c-33.084 0-60-26.916-60-60v-100h-48c-33.084 0-60-26.916-60-60v-575.996c0-33.084 26.916-60 60-60h352v-47.996h-38.048c-33.084 0-60-26.916-60-60v-40.008c0-11.046 8.954-20 20-20h356.098c11.046 0 20 8.954 20 20v40.008c0 33.084-26.916 60-60 60h-38.050v47.996h352c33.084 0 60 26.916 60 60v575.996c0 33.084-26.916 60-60 60zM964 760c11.028 0 20-8.972 20-20v-459.996h-68v479.996zM168 920h688c11.028 0 20-8.972 20-20v-100h-728v100c0 11.028 8.972 20 20 20zM60 760h48v-149.98c0-11.046 8.954-20 20-20s20 8.954 20 20v149.98h728v-479.996h-102v65.908c0 11.046-8.954 20-20 20h-26.022c-4.574 15.748-10.85 30.888-18.766 45.274l18.41 18.408c7.81 7.81 7.81 20.474 0 28.286l-60.72 60.72c-7.81 7.808-20.474 7.808-28.286 0l-18.408-18.41c-14.384 7.916-29.526 14.192-45.274 18.764v26.022c0 11.046-8.954 20-20 20h-85.872c-11.046 0-20-8.954-20-20v-26.022c-15.748-4.574-30.888-10.848-45.274-18.764l-18.408 18.41c-7.81 7.808-20.474 7.808-28.286 0l-60.72-60.72c-7.81-7.81-7.81-20.474 0-28.286l18.41-18.408c-7.916-14.384-14.192-29.526-18.766-45.274h-26.018c-11.046 0-20-8.954-20-20v-65.908h-102v150.016c0 11.046-8.954 20-20 20s-20-8.954-20-20v-150.016h-68v459.996c0 11.028 8.972 20 20 20zM354.090 428.452l-15.286 15.286 32.436 32.436 15.286-15.286c6.674-6.67 17.104-7.772 25.024-2.638 18.926 12.272 39.68 20.874 61.686 25.566 9.232 1.968 15.83 10.122 15.83 19.56v21.604h45.872v-21.604c0-9.438 6.598-17.592 15.83-19.56 22.004-4.692 42.758-13.292 61.686-25.566 7.92-5.134 18.35-4.034 25.024 2.638l15.286 15.286 32.436-32.436-15.286-15.286c-6.672-6.674-7.774-17.104-2.638-25.024 12.272-18.928 20.874-39.682 25.566-61.686 1.968-9.23 10.122-15.83 19.56-15.83h21.598v-45.908h-124.686c1.78 7.5 2.698 15.208 2.698 22.972 0 55.148-44.866 100.012-100.012 100.012s-100.012-44.866-100.012-100.012c0-7.764 0.918-15.472 2.698-22.972h-124.686v45.908h21.602c9.438 0 17.592 6.598 19.56 15.83 4.692 22.006 13.294 42.76 25.566 61.686 5.136 7.918 4.036 18.35-2.638 25.024zM451.988 302.976c0 33.090 26.92 60.012 60.012 60.012s60.012-26.922 60.012-60.012c0-7.898-1.598-15.7-4.632-22.972h-110.76c-3.034 7.272-4.632 15.074-4.632 22.972zM670.048-3.992v-20.008h-316.096v20.008c0 11.028 8.972 20 20 20h276.098c11.028 0 19.998-8.972 19.998-20zM572 56.008h-120v47.996h120zM964 144.004h-904c-11.028 0-20 8.972-20 20v76h944v-76c0-11.028-8.972-20-20-20zM572 840h216c11.046 0 20 8.954 20 20s-8.954 20-20 20h-216c-11.046 0-20-8.954-20-20s8.954-20 20-20zM324 840c5.26 0 10.42 2.14 14.14 5.86s5.86 8.88 5.86 14.14-2.14 10.42-5.86 14.14-8.88 5.86-14.14 5.86-10.42-2.14-14.14-5.86-5.86-8.88-5.86-14.14 2.14-10.42 5.86-14.14 8.88-5.86 14.14-5.86zM236 840c5.26 0 10.42 2.14 14.14 5.86s5.86 8.88 5.86 14.14-2.14 10.42-5.86 14.14-8.88 5.86-14.14 5.86-10.42-2.14-14.14-5.86-5.86-8.88-5.86-14.14 2.14-10.42 5.86-14.14 8.88-5.86 14.14-5.86zM412 840c5.26 0 10.42 2.14 14.14 5.86s5.86 8.88 5.86 14.14-2.14 10.42-5.86 14.14-8.88 5.86-14.14 5.86-10.42-2.14-14.14-5.86-5.86-8.88-5.86-14.14 2.14-10.42 5.86-14.14 8.88-5.86 14.14-5.86zM224 664.004h47.596c11.046 0 20 8.954 20 20s-8.954 20-20 20h-47.596c-11.046 0-20-8.954-20-20s8.954-20 20-20zM359.596 664.004h183.476c11.046 0 20 8.954 20 20s-8.954 20-20 20h-183.476c-11.046 0-20-8.954-20-20s8.954-20 20-20zM224 568.008h116c11.046 0 20 8.954 20 20s-8.954 20-20 20h-116c-11.046 0-20-8.954-20-20s8.954-20 20-20zM631.072 664.004h168.928c11.046 0 20 8.954 20 20s-8.954 20-20 20h-168.928c-11.046 0-20-8.954-20-20s8.954-20 20-20zM800 608.008h-136.878c-11.046 0-20-8.954-20-20s8.954-20 20-20h136.878c11.046 0 20 8.954 20 20s-8.954 20-20 20zM128 500.020c5.26 0 10.42 2.14 14.14 5.86s5.86 8.88 5.86 14.14-2.14 10.42-5.86 14.14-8.88 5.86-14.14 5.86-10.42-2.14-14.14-5.86-5.86-8.88-5.86-14.14 2.14-10.42 5.86-14.14 8.88-5.86 14.14-5.86z" />
<glyph unicode="&#xe909;" glyph-name="repair" d="M130.273 897.391c-26.172 0-47.469-21.297-47.469-47.469s21.297-47.461 47.469-47.461c26.172 0 47.461 21.297 47.461 47.469s-21.289 47.461-47.461 47.461zM130.273 832.758c-9.469 0-17.172 7.703-17.172 17.172 0 9.461 7.703 17.164 17.172 17.164 9.461 0 17.164-7.703 17.164-17.164 0-9.469-7.703-17.172-17.164-17.172zM257.516 897.391c-26.172 0-47.469-21.297-47.469-47.469s21.297-47.461 47.469-47.461c26.172 0 47.461 21.289 47.461 47.461s-21.289 47.469-47.461 47.469zM257.516 832.758c-9.469 0-17.172 7.703-17.172 17.172 0 9.461 7.703 17.164 17.172 17.164 9.461 0 17.164-7.703 17.164-17.164 0-9.469-7.703-17.172-17.164-17.172zM384.758 897.391c-26.172 0-47.461-21.297-47.461-47.469s21.289-47.461 47.461-47.461c26.172 0 47.461 21.289 47.461 47.461s-21.289 47.469-47.461 47.469zM384.758 832.758c-9.469 0-17.164 7.703-17.164 17.172 0 9.461 7.695 17.164 17.164 17.164s17.172-7.703 17.172-17.164c0-9.469-7.711-17.172-17.172-17.172zM968.461 960h-912.922c-30.625 0-55.539-24.914-55.539-55.539v-668.531c0-30.625 24.914-55.539 55.539-55.539h97.719c-4.641-5.945-4.234-14.547 1.234-20.016l72.781-72.781c-5.453-11.188-10.227-22.711-14.289-34.445h-102.914c-8.359 0-15.141-6.781-15.141-15.148v-86.852c0-8.367 6.781-15.148 15.141-15.148h298.922c8.367 0 15.148 6.781 15.148 15.148 0 46.219 37.602 83.82 83.82 83.82 46.211 0 83.813-37.602 83.813-83.82 0-8.367 6.781-15.148 15.148-15.148h298.922c8.367 0 15.148 6.781 15.148 15.148v86.852c0 8.367-6.781 15.148-15.148 15.148h-102.914c-4.063 11.734-8.836 23.258-14.289 34.445l72.789 72.781c5.461 5.469 5.867 14.070 1.227 20.016h105.797c30.625 0 55.539 24.914 55.539 55.539v374.742c0 8.367-6.781 15.148-15.141 15.148-8.367 0-15.148-6.781-15.148-15.148v-374.742c0-13.922-11.328-25.242-25.25-25.242h-135.914l-89.281 89.281v103.602c0 8.367-6.789 15.148-15.148 15.148h-27.266v93.344l21.375 19.734c4.297 3.969 5.93 10.047 4.195 15.625l-36.352 117.141c-1.969 6.336-7.836 10.656-14.469 10.656h-40.398c-6.633 0-12.5-4.32-14.469-10.656l-36.352-117.141c-1.734-5.578-0.102-11.656 4.195-15.625l21.383-19.734v-93.344h-27.266c-8.367 0-15.148-6.781-15.148-15.148v-39.383h-119.164v23.008l58.172 58.172c2.844 2.844 4.438 6.695 4.438 10.711v124.219c0 4.047-1.625 7.93-4.508 10.773l-80.781 79.781c-4.352 4.297-10.852 5.555-16.484 3.203-5.641-2.359-9.313-7.867-9.313-13.977v-135.039l-39.383-24.797-39.383 24.797v8.633c0 8.367-6.781 15.148-15.148 15.148s-15.148-6.781-15.148-15.148v-16.992c0-5.211 2.672-10.047 7.078-12.82l54.531-34.336c4.93-3.109 11.211-3.109 16.141 0l54.531 34.336c4.406 2.773 7.078 7.609 7.078 12.82v107.148l50.492-49.859v-111.609l-58.172-58.172c-2.844-2.844-4.438-6.695-4.438-10.719v-29.586c-6.914-1.406-12.117-7.516-12.117-14.844v-102.914c-11.742-4.055-23.258-8.836-34.453-14.281l-68.555 68.555v93.070c0 4.023-1.594 7.875-4.438 10.719l-58.172 58.172v111.609l50.492 49.859v-19.211c0-8.367 6.781-15.148 15.148-15.148s15.148 6.781 15.148 15.148v55.453c0 6.117-3.672 11.625-9.313 13.977-5.633 2.359-12.133 1.094-16.484-3.195l-80.789-79.781c-2.883-2.844-4.5-6.727-4.5-10.773v-124.219c0-4.016 1.594-7.867 4.438-10.711l58.172-58.172v-87.227l-89.281-89.281h-127.836c-13.922 0-25.242 11.32-25.242 25.242v503.922h963.406v-58.609c0-8.359 6.781-15.141 15.148-15.141s15.148 6.781 15.148 15.141v223.219c0 30.625-24.914 55.539-55.539 55.539zM635.375 529.82l-19.227 17.75 30.219 97.352h18.070l30.211-97.352-19.227-17.75c-3.102-2.867-4.875-6.898-4.875-11.133v-99.977h-30.289v99.977c-0.008 4.234-1.773 8.266-4.883 11.133zM712.961 388.422v-88.031l-68.555-68.555c-11.195 5.445-22.711 10.227-34.453 14.289v102.906c0 7.328-5.203 13.438-12.117 14.844v24.539h115.125zM375.711 199.977c15.898 8.469 32.664 15.422 49.828 20.664 6.367 1.945 10.719 7.828 10.719 14.492v98.758h143.398v-98.758c0-6.664 4.359-12.547 10.727-14.492 17.164-5.242 33.93-12.195 49.828-20.664 5.883-3.133 13.117-2.055 17.836 2.656l69.852 69.852 87.648-87.656c0.008 0 0.008-0.008 0.016-0.016l13.734-13.727-69.852-69.852c-4.711-4.711-5.789-11.953-2.656-17.836 8.469-15.891 15.422-32.656 20.664-49.828 1.945-6.367 7.828-10.719 14.484-10.719h98.758v-56.555h-154.008c-7.828 119.367-107.414 214.086-228.727 214.086-32.438 0-63.789-6.641-93.195-19.734-7.641-3.406-11.078-12.359-7.672-20.008 3.398-7.641 12.367-11.070 20-7.672 25.5 11.359 52.703 17.117 80.867 17.117 104.602 0 190.609-81.141 198.367-183.789h-85.258c-7.43 55.781-55.32 98.961-113.109 98.961s-105.68-43.18-113.109-98.961h-85.273c3.68 49.742 25.484 95.445 62.328 130 6.102 5.719 6.414 15.305 0.688 21.414-5.719 6.094-15.305 6.406-21.406 0.688-42.359-39.719-68.078-94.477-71.938-152.102h-154.031v56.555h98.758c6.664 0 12.547 4.352 14.492 10.719 5.242 17.172 12.195 33.938 20.664 49.828 3.133 5.883 2.055 13.125-2.656 17.836l-69.852 69.852 13.734 13.727c0 0.008 0.008 0.016 0.016 0.016l87.648 87.656 69.852-69.852c4.711-4.711 11.953-5.789 17.836-2.656zM30.297 770.148v134.313c0 13.922 11.328 25.242 25.242 25.242h912.922c13.922 0 25.242-11.328 25.242-25.242v-134.313z" />
<glyph unicode="&#xe90a;" glyph-name="gear" d="M1024 317.034v261.932h-72.446c-8.998 30.262-21.094 59.46-36.144 87.228l51.236 51.236-185.214 185.216-51.236-51.236c-27.77 15.048-56.966 27.148-87.228 36.144v72.446h-261.934v-72.446c-30.262-8.996-59.458-21.094-87.228-36.144l-51.236 51.236-185.216-185.216 51.236-51.236c-15.048-27.77-27.148-56.966-36.144-87.228h-72.446v-261.934h72.446c8.998-30.262 21.096-59.458 36.144-87.228l-51.236-51.236 185.216-185.216 51.236 51.236c27.768-15.048 56.964-27.148 87.228-36.144v-72.444h261.934v72.446c30.262 8.998 59.46 21.096 87.228 36.144l51.236-51.236 185.214 185.216-51.234 51.236c15.048 27.768 27.146 56.964 36.144 87.228zM904.958 377.034l-5.544-22.956c-9.692-40.126-25.528-78.344-47.066-113.588l-12.316-20.154 41.764-41.766-100.362-100.362-41.764 41.764-20.156-12.316c-35.248-21.54-73.464-37.376-113.588-47.068l-22.956-5.544v-59.044h-141.934v59.042l-22.956 5.544c-40.126 9.692-78.342 25.528-113.588 47.068l-20.154 12.316-41.766-41.764-100.362 100.362 41.764 41.766-12.316 20.154c-21.54 35.246-37.376 73.462-47.068 113.588l-5.544 22.956h-59.046v141.934h59.044l5.544 22.958c9.692 40.124 25.528 78.34 47.068 113.588l12.316 20.156-41.764 41.764 100.362 100.364 41.766-41.764 20.154 12.316c35.246 21.54 73.462 37.376 113.586 47.066l22.958 5.544v59.042h141.934v-59.044l22.958-5.544c40.124-9.69 78.34-25.526 113.588-47.066l20.154-12.316 41.766 41.764 100.362-100.364-41.764-41.764 12.316-20.156c21.54-35.246 37.374-73.462 47.066-113.588l5.544-22.958h59.042v-141.934h-59.042zM512 798c-192.99 0-350-157.010-350-350s157.010-350 350-350 350 157.010 350 350-157.010 350-350 350zM512 158c-159.906 0-290 130.094-290 290s130.094 290 290 290 290-130.094 290-290-130.094-290-290-290zM611.694 491.322l54.24-54.242-54.24-54.242 42.426-42.424 96.668 96.666-96.668 96.668zM369.88 533.748l-96.668-96.668 96.668-96.666 42.426 42.424-54.24 54.242 54.24 54.242zM448.562 254.647l70.131 397.006 59.1-10.44-70.131-397.006z" />
<glyph unicode="&#xe90b;" glyph-name="development" d="M136.533 891.733h34.133v-34.133h-34.133v34.133zM204.8 891.733h34.133v-34.133h-34.133v34.133zM68.267 891.733h34.133v-34.133h-34.133v34.133zM955.733 960h-887.467c-37.702 0-68.267-30.564-68.267-68.267v-887.467c0-37.702 30.564-68.267 68.267-68.267h887.467c37.702 0 68.267 30.564 68.267 68.267v887.467c0 37.702-30.564 68.267-68.267 68.267zM989.867 4.267c0-18.852-15.281-34.133-34.133-34.133h-887.467c-18.852 0-34.133 15.281-34.133 34.133v785.067h955.733v-785.067zM989.867 823.467h-955.733v68.267c0 18.852 15.281 34.133 34.133 34.133h887.467c18.852 0 34.133-15.281 34.133-34.133v-68.267zM853.333 448h-59.443c-6.991 29.246-18.543 57.207-34.236 82.859l41.984 41.967c6.662 6.665 6.662 17.468 0 24.132l-72.414 72.414c-6.771 6.402-17.361 6.402-24.132 0l-41.967-41.984c-25.651 15.693-53.613 27.245-82.859 34.236v59.443c0 9.425-7.642 17.067-17.067 17.067h-102.4c-9.425 0-17.067-7.642-17.067-17.067v-59.443c-29.246-6.991-57.207-18.543-82.859-34.236l-41.967 41.984c-6.665 6.662-17.468 6.662-24.132 0l-72.414-72.414c-6.662-6.665-6.662-17.468 0-24.132l41.984-41.967c-15.693-25.651-27.245-53.613-34.236-82.859h-59.443c-9.425 0-17.067-7.642-17.067-17.067v-102.4c0-9.425 7.642-17.067 17.067-17.067h59.443c6.991-29.246 18.543-57.207 34.236-82.859l-41.984-41.967c-6.662-6.665-6.662-17.468 0-24.132l72.414-72.414c6.771-6.402 17.361-6.402 24.132 0l41.967 41.984c25.651-15.693 53.613-27.245 82.859-34.236v-59.443c0-9.425 7.642-17.067 17.067-17.067h102.4c9.425 0 17.067 7.642 17.067 17.067v59.443c29.246 6.991 57.207 18.543 82.859 34.236l41.967-41.984c6.665-6.662 17.468-6.662 24.132 0l72.414 72.414c6.662 6.665 6.662 17.468 0 24.132l-41.984 41.967c15.693 25.651 27.245 53.613 34.236 82.859h59.443c9.425 0 17.067 7.642 17.067 17.067v102.4c0 9.425-7.642 17.067-17.067 17.067zM836.267 345.6h-56.166c-8.192-0.002-15.228-5.826-16.759-13.875-6.449-34.336-19.93-66.97-39.595-95.846-4.608-6.771-3.755-15.861 2.031-21.658l39.663-39.646-48.282-48.282-39.612 39.663c-5.796 5.786-14.886 6.639-21.658 2.031-28.877-19.665-61.51-33.146-95.846-39.595-8.049-1.532-13.873-8.567-13.875-16.759v-56.166h-68.301v56.166c-0.002 8.192-5.826 15.228-13.875 16.759-34.336 6.449-66.97 19.93-95.846 39.595-6.771 4.608-15.861 3.755-21.658-2.031l-39.646-39.663-48.282 48.282 39.663 39.612c5.786 5.796 6.639 14.886 2.031 21.658-19.665 28.877-33.146 61.51-39.595 95.846-1.517 8.062-8.557 13.903-16.759 13.909h-56.166v68.267h56.166c8.192 0.002 15.228 5.826 16.759 13.875 6.449 34.336 19.93 66.97 39.595 95.846 4.608 6.771 3.755 15.861-2.031 21.658l-39.663 39.646 48.282 48.282 39.612-39.663c5.796-5.786 14.886-6.639 21.658-2.031 28.877 19.665 61.51 33.146 95.846 39.595 8.062 1.517 13.903 8.557 13.909 16.759v56.166h68.267v-56.166c0.002-8.192 5.826-15.228 13.875-16.759 34.336-6.449 66.97-19.93 95.846-39.595 6.771-4.608 15.861-3.755 21.658 2.031l39.646 39.663 48.282-48.282-39.663-39.612c-5.786-5.796-6.639-14.886-2.031-21.658 19.665-28.877 33.146-61.51 39.595-95.846 1.532-8.049 8.567-13.873 16.759-13.875h56.166v-68.301zM512 601.6c-122.534 0-221.867-99.332-221.867-221.867s99.332-221.867 221.867-221.867 221.867 99.332 221.867 221.867c-0.141 122.475-99.392 221.726-221.867 221.867zM512 192c-103.682 0-187.733 84.051-187.733 187.733s84.051 187.733 187.733 187.733 187.733-84.051 187.733-187.733c-0.122-103.631-84.102-187.612-187.733-187.733zM453.973 417.28l-20.48 27.307-68.267-51.2c-7.541-5.655-9.069-16.352-3.413-23.893 0.971-1.293 2.121-2.443 3.413-3.413l68.267-51.2 20.48 27.307-50.057 37.547 50.057 37.547zM662.187 389.973c-0.971 1.293-2.121 2.443-3.413 3.413l-68.267 51.2-20.48-27.307 50.057-37.547-50.057-37.547 20.48-27.307 68.267 51.2c7.541 5.655 9.069 16.352 3.413 23.893zM462.004 300.663l68.285 170.647 31.689-12.681-68.285-170.647-31.689 12.681z" />
<glyph unicode="&#xe90c;" glyph-name="digital-marketing-1" d="M944 720h-32v16h16c26.51 0 48 21.49 48 48s-21.49 48-48 48v0h-16v80c0 0.043 0.001 0.093 0.001 0.144 0 5.208-2.571 9.816-6.513 12.624l-0.047 0.032c-2.628 2.006-5.958 3.215-9.571 3.215-1.607 0-3.159-0.239-4.621-0.684l0.112 0.029-205.76-63.36h-109.6c-8.837 0-16-7.163-16-16v0-16h-32c-8.837 0-16-7.163-16-16v0-64c0-8.837 7.163-16 16-16v0h32v-16h-96v144c0 8.837-7.163 16-16 16v0h-320c-8.837 0-16-7.163-16-16v0-144h-32c-26.477-0.082-47.918-21.523-48-47.992v-512.008c0.082-26.477 21.523-47.918 47.992-48h368.008v-48h-96c-8.837 0-16-7.163-16-16v0-64c0-8.837 7.163-16 16-16v0h320c8.837 0 16 7.163 16 16v0 64c0 8.837-7.163 16-16 16v0h-96v48h368c26.477 0.082 47.918 21.523 48 47.992v512.008c-0.082 26.477-21.523 47.918-47.992 48h-0.008zM912 800h16c8.837 0 16-7.163 16-16s-7.163-16-16-16v0h-16zM704 836.16l176 54.24v-212.8l-176 54.24zM592 832h80v-96h-80zM637.6 704l-11.52-80h-18.080v80zM544 768v32h16v-32zM144 848h288v-224h-288zM656 32v-32h-288v32zM480 64v48h64v-48zM960 160c0-8.837-7.163-16-16-16v0h-864c-8.837 0-16 7.163-16 16v0 16h896zM960 208h-896v464c0 8.837 7.163 16 16 16v0h32v-80c0-8.837 7.163-16 16-16v0h320c8.837 0 16 7.163 16 16v0 80h112v-80c0-8.837 7.163-16 16-16v0h48c8.045 0.001 14.703 5.94 15.83 13.674l0.010 0.086 14.080 98.24h15.68l205.76-63.36c1.291-0.408 2.777-0.644 4.317-0.644 0.114 0 0.227 0.001 0.34 0.004h-0.017c8.783 0.133 15.867 7.217 16 15.987v32.013h32c8.837 0 16-7.163 16-16v0zM112 240h416c8.837 0 16 7.163 16 16v0 256c0 8.837-7.163 16-16 16v0h-416c-8.837 0-16-7.163-16-16v0-256c0-8.837 7.163-16 16-16v0zM128 272v211.376l183.616-113.008c2.385-1.489 5.281-2.373 8.384-2.373s5.999 0.883 8.452 2.412l-0.068-0.039 183.616 113.008v-211.376zM168.528 496h302.944l-151.472-93.216zM592 336h32v-48c0-8.837 7.163-16 16-16v0h272c8.837 0 16 7.163 16 16v0 192c0 8.837-7.163 16-16 16v0h-16v48c0 8.837-7.163 16-16 16v0h-288c-8.837 0-16-7.163-16-16v0-192c0-8.837 7.163-16 16-16v0zM896 304h-240v160h240zM608 528h256v-32h-224c-8.837 0-16-7.163-16-16v0-112h-16zM688 432h32v-32h-32zM752 432h112v-32h-112zM688 368h64v-32h-64zM784 368h80v-32h-80zM247.584 674.384c2.392-1.501 5.3-2.392 8.415-2.392 2.607 0 5.069 0.624 7.244 1.73l-0.091-0.042 96 48c5.296 2.682 8.863 8.084 8.863 14.32s-3.567 11.638-8.772 14.278l-0.091 0.042-96 48c-2.084 1.064-4.545 1.687-7.152 1.687-8.837 0-16-7.163-16-16 0-0.003 0-0.005 0-0.008v0-96c0-0.002 0-0.005 0-0.008 0-5.721 3.002-10.74 7.517-13.569l0.067-0.039zM272 758.112l44.224-22.112-44.224-22.112z" />
<glyph unicode="&#xe90d;" glyph-name="checkmark" d="M778.64-0.002h-661.307c-64.725 0-117.332 52.608-117.332 117.332v661.307c0 64.725 52.608 117.332 117.332 117.332h533.311c17.664 0 31.999-14.335 31.999-31.999s-14.335-31.999-31.999-31.999h-533.311c-29.398 0-53.334-23.937-53.334-53.334v-661.307c0-29.398 23.937-53.334 53.334-53.334h661.307c29.398 0 53.334 23.937 53.334 53.334v362.653c0 17.664 14.335 31.999 31.999 31.999s31.999-14.335 31.999-31.999v-362.653c0-64.725-52.608-117.332-117.332-117.332zM522.648 362.651c-8.187 0-16.382 3.117-22.609 9.39l-191.994 191.994c-12.5 12.5-12.5 32.765 0 45.264s32.765 12.5 45.264 0l169.385-169.378 446.658 446.658c12.507 12.507 32.772 12.507 45.272 0 12.5-12.5 12.5-32.765 0-45.264l-469.321-469.321c-6.273-6.226-14.46-9.343-22.656-9.343z" />
<glyph unicode="&#xe90e;" glyph-name="play-button" d="M73.143 960l877.714-512-877.714-512z" />
<glyph unicode="&#xe90f;" glyph-name="play-button-1" d="M121.285-64c-42.845 0-62.020 36.717-62.020 73.102v877.796c-0.003 36.385 19.172 73.102 62.014 73.102 13.87 0 28.251-4.246 42.754-12.621l760.199-438.885c25.743-14.868 40.503-36.913 40.503-60.491s-14.76-45.623-40.5-60.488l-760.206-438.901c-14.499-8.368-28.881-12.614-42.744-12.614zM121.279 914.344c-14.235 0-16.361-17.193-16.361-27.446v-877.796c0-10.25 2.126-27.446 16.364-27.446 3.949 0 10.615 1.128 19.919 6.499l760.203 438.898c11.068 6.389 17.675 14.222 17.675 20.95s-6.607 14.561-17.679 20.953l-760.199 438.885c-9.304 5.374-15.97 6.503-19.922 6.503z" />
<glyph unicode="&#xe910;" glyph-name="play-button-2" d="M78.724-64v1024l866.548-512.025-866.548-511.975z" />
<glyph unicode="&#xe911;" glyph-name="send" d="M1023.906 940.387c-0.214 1.707-0.426 3.416-1.066 5.122-0.214 0.64-0.426 1.495-0.64 2.135-1.066 2.347-2.561 4.482-4.268 6.403-1.921 1.707-4.056 3.201-6.403 4.268-0.64 0.214-1.495 0.64-2.135 0.64-1.707 0.426-3.416 0.854-5.122 0.854-0.854 0-1.495 0-2.347 0-1.921 0-4.056-0.426-5.977-1.066-0.426-0.214-0.854-0.214-1.281-0.426h-0.214l-981.574-426.439c-10.885-4.696-15.793-17.288-11.099-28.173 1.921-4.482 5.336-8.11 9.604-10.245l356.859-188.887 189.102-356.859c3.628-7.043 10.885-11.311 18.783-11.525h0.854c8.11 0.214 15.367 5.336 18.783 12.806l426.647 981.576c0.214 0.426 0.214 0.854 0.426 1.281 0.64 1.921 1.066 3.842 1.066 5.977 0.002 0.852 0.214 1.707 0.002 2.559zM70.717 510.748l838.148 364.329-528.459-528.245-309.689 163.916zM574.63 6.835l-163.916 309.689 528.245 528.459-364.329-838.148z" />
<glyph unicode="&#xe912;" glyph-name="mail" d="M971.486 789.334h-918.972c-28.884 0-52.514-23.63-52.514-52.512v-577.642c0-28.88 23.63-52.514 52.514-52.514h918.974c28.88 0 52.514 23.63 52.514 52.514v577.642c-0.002 28.882-23.632 52.512-52.516 52.512zM951.78 749.952l-409.572-307.204c-7.364-5.604-18.668-9.11-30.21-9.058-11.54-0.052-22.842 3.454-30.208 9.058l-409.572 307.204h879.562zM733 422.478l223.18-275.694c0.224-0.276 0.498-0.486 0.736-0.736h-889.832c0.236 0.262 0.512 0.46 0.736 0.736l223.18 275.694c6.838 8.454 5.542 20.848-2.928 27.702-8.454 6.838-20.848 5.542-27.688-2.914l-221-273.002v551.072l418.788-314.092c15.742-11.724 34.894-16.884 53.824-16.936 18.904 0.040 38.072 5.2 53.824 16.936l418.788 314.092v-551.068l-220.994 272.998c-6.84 8.454-19.246 9.754-27.688 2.914-8.468-6.838-9.768-19.248-2.926-27.702z" />
<glyph unicode="&#xe913;" glyph-name="envelope" d="M938.666 832h-853.332c-47.064 0-85.334-38.27-85.334-85.334v-597.334c0-47.062 38.27-85.332 85.334-85.332h853.334c47.062 0 85.332 38.27 85.332 85.334v597.332c0 47.064-38.27 85.334-85.334 85.334zM85.334 789.334h853.334c3.144 0 5.914-1.146 8.864-1.794-73.878-67.614-318.846-291.718-404.572-368.956-6.708-6.042-17.52-13.25-30.958-13.25s-24.25 7.208-30.98 13.27c-85.718 77.226-330.7 301.342-404.566 368.932 2.956 0.648 5.732 1.798 8.878 1.798zM42.666 149.334v597.332c0 4.18 1.26 7.972 2.388 11.792 56.544-51.752 227.472-208.12 338.304-308.906-110.472-94.894-281.444-256.99-338.438-311.338-1.006 3.628-2.254 7.176-2.254 11.12zM938.666 106.666h-853.332c-3.408 0-6.438 1.188-9.62 1.948 58.894 56.144 230.954 219.172 339.484 312.018 14.148-12.834 27.072-24.536 37.26-33.716 17.584-15.876 38.166-24.25 59.542-24.25s41.958 8.376 59.52 24.23c10.192 9.184 23.126 20.896 37.282 33.736 108.536-92.836 280.572-255.852 339.484-312.018-3.182-0.76-6.208-1.948-9.62-1.948zM981.334 149.334c0-3.942-1.248-7.492-2.252-11.12-57.016 54.376-227.968 216.454-338.438 311.336 110.836 100.786 281.738 257.14 338.302 308.912 1.128-3.82 2.388-7.614 2.388-11.794v-597.334z" />
<glyph unicode="&#xe914;" glyph-name="message" d="M982.486 127.073h-940.973c-7.642 0-13.838 6.195-13.838 13.838v0 613.846c0 7.642 6.195 13.838 13.838 13.838v0h940.973c7.642 0 13.838-6.195 13.838-13.838v0-613.846c0-7.642-6.195-13.838-13.838-13.838v0zM55.351 154.749h913.297v586.171h-913.297zM512 368.861c-0.11 0-0.241 0-0.372 0-53.040 0-101.259 20.646-137.057 54.34l0.102-0.095-342.639 321.896c-2.689 2.531-4.364 6.114-4.364 10.088 0 7.645 6.197 13.842 13.842 13.842 3.671 0 7.008-1.429 9.486-3.761l-0.007 0.007 342.625-321.896c30.887-28.97 72.557-46.765 118.383-46.765s87.496 17.795 118.476 46.852l-0.094-0.087 342.625 321.896c2.471 2.326 5.808 3.755 9.479 3.755 7.645 0 13.842-6.197 13.842-13.842 0-3.974-1.675-7.557-4.356-10.081l-0.007-0.007-342.639-321.91c-35.694-33.59-83.907-54.231-136.94-54.231-0.136 0-0.272 0-0.408 0h0.021zM41.514 127.142c-0.002 0-0.005 0-0.008 0-7.642 0-13.838 6.195-13.838 13.838 0 4.261 1.926 8.072 4.954 10.61l0.022 0.018 346.043 289.017c2.397 2.044 5.53 3.288 8.954 3.288 7.642 0 13.838-6.195 13.838-13.838 0-4.296-1.957-8.134-5.029-10.672l-0.023-0.019-346.043-289.017c-2.383-2.004-5.484-3.222-8.87-3.224v0zM982.486 127.142c-3.386 0.002-6.487 1.22-8.891 3.242l0.021-0.017-346.043 289.017c-3.095 2.557-5.052 6.395-5.052 10.691 0 7.642 6.195 13.838 13.838 13.838 3.424 0 6.557-1.244 8.974-3.304l-0.019 0.016 346.043-289.017c3.050-2.556 4.975-6.367 4.975-10.627 0-7.642-6.195-13.838-13.838-13.838-0.003 0-0.005 0-0.008 0v0z" />
<glyph unicode="&#xe915;" glyph-name="mail-1" d="M824 960h-624c-110.282 0-200-89.72-200-200v-240c0-110.28 89.718-200 200-200h152c22.092 0 40 17.908 40 40s-17.908 40-40 40h-152c-66.168 0-120 53.832-120 120v240c0 66.168 53.832 120 120 120h624c66.168 0 120-53.832 120-120v-240c0-66.168-53.832-120-120-120h-152c-22.092 0-40-17.908-40-40s17.908-40 40-40h152c110.282 0 200 89.72 200 200v240c0 110.28-89.718 200-200 200zM838.766 730.118c16.504 14.684 17.978 39.968 3.292 56.472-14.684 16.506-39.964 17.978-56.472 3.294l-247.012-219.784c-15.15-13.478-38.022-13.456-53.142-0.002l-247.018 219.786c-16.506 14.686-41.79 13.21-56.472-3.294-14.686-16.504-13.21-41.788 3.292-56.472l247.020-219.788c45.49-40.47 114.068-40.406 159.496 0zM312 56c0 22.092-17.908 40-40 40s-40-17.908-40-40c0-66.168 53.832-120 120-120h320c66.168 0 120 53.832 120 120 0 22.092-17.908 40-40 40s-40-17.908-40-40c0-22.056-17.944-40-40-40h-320c-22.056 0-40 17.944-40 40zM512 400c-22.092 0-40-17.908-40-40v-161.888l-53.334 47.702c-16.464 14.728-41.752 13.318-56.48-3.148s-13.318-41.752 3.148-56.48c67.824-59.684 69.172-64.022 86.71-74.148 36.982-21.362 82.872-21.394 119.912 0 18.048 10.426 23.064 18.138 86.708 74.148 16.466 14.728 17.876 40.014 3.148 56.48-14.724 16.466-40.018 17.876-56.48 3.148l-53.332-47.702v161.888c0 22.092-17.908 40-40 40z" />
<glyph unicode="&#xe916;" glyph-name="phone" d="M219.272 949.653c6.621 6.625 15.606 10.347 24.972 10.347 9.368 0 18.351-3.722 24.972-10.347l149.785-149.803c13.784-13.789 13.784-36.139 0-49.928l-24.964-24.983-199.73 199.75zM818.571 150.674c-79.448-79.342-252.29 2.489-474.462 224.714s-304.036 395.067-224.677 474.39l49.928 49.947 199.714-199.75-28.408-28.408c-18.613-18.69-20.681-48.212-4.854-69.314 33.338-44.575 69.467-86.991 108.173-126.992 40.011-38.687 82.421-74.817 126.976-108.173 21.114-15.805 50.625-13.738 69.331 4.854l28.408 28.424 199.75-199.75zM918.375 250.549l-24.964-24.999-199.75 199.783 24.964 24.964c13.974 13.345 35.971 13.345 49.947 0l149.803-149.803c6.625-6.623 10.347-15.606 10.347-24.972 0-9.368-3.722-18.351-10.347-24.972zM963.52-7.85c-12.919-34.13-45.781-56.556-82.273-56.143h-756.519c-39.003 0-70.621 31.617-70.621 70.621s31.617 70.621 70.621 70.621h229.516c19.476 0.059 35.252 15.833 35.31 35.31-0.144 19.441-15.868 35.165-35.31 35.31h-176.551c-39.003 0-70.621 31.617-70.621 70.621v88.275c0 9.751 7.905 17.656 17.656 17.656s17.656-7.905 17.656-17.656v-88.275c0.059-19.476 15.833-35.252 35.31-35.31h176.551c39.003 0 70.621-31.617 70.621-70.621s-31.617-70.621-70.621-70.621h-229.516c-19.441-0.144-35.165-15.868-35.31-35.31 0.059-19.476 15.833-35.252 35.31-35.31h756.519c21.739 0.002 41.269 13.288 49.256 33.507s2.807 43.265-13.063 58.122l-70.797 66.030 24.894 24.894 69.914-65.147c26.936-24.348 35.756-62.946 22.070-96.574zM672.035 695.173c-7.139 0.002-13.576 4.303-16.307 10.9s-1.223 14.189 3.825 19.238l123.586 123.586c6.927 6.69 17.939 6.595 24.749-0.215s6.905-17.822 0.215-24.749l-123.586-123.586c-3.311-3.311-7.801-5.172-12.482-5.174zM601.414 748.138c-9.751 0-17.656 7.905-17.656 17.656v158.895c0 9.751 7.905 17.656 17.656 17.656s17.656-7.905 17.656-17.656v-158.895c0-9.751-7.905-17.656-17.656-17.656zM883.896 624.554h-158.895c-9.751 0-17.656 7.905-17.656 17.656s7.905 17.656 17.656 17.656h158.895c9.751 0 17.656-7.905 17.656-17.656 0-9.752-7.905-17.656-17.656-17.656z" />
<glyph unicode="&#xe917;" glyph-name="call-1" d="M941.835 287.861c-62.693 0-124.251 9.805-182.584 29.083-29.083 9.917-62.195 2.221-81.168-17.112l-115.139-86.917c-133.528 71.277-215.779 153.501-286.083 286.027l84.36 112.139c21.917 21.888 29.779 53.861 20.36 83.861-19.36 58.64-29.195 120.168-29.195 182.888 0.003 45.309-36.859 82.171-82.165 82.171h-188.056c-45.304 0-82.165-36.861-82.165-82.165 0-519.336 422.501-941.835 941.835-941.835 45.307 0 82.168 36.861 82.168 82.168v187.528c-0.003 45.304-36.864 82.165-82.168 82.165zM967.112 18.165c0-13.944-11.333-25.277-25.277-25.277-487.973 0-884.944 396.973-884.944 884.944 0 13.944 11.333 25.277 25.277 25.277h188.056c13.944 0 25.277-11.333 25.277-25.277 0-68.805 10.805-136.333 31.944-200.307 2.944-9.445 0.555-19.221-9-29.168l-97.779-129.496c-6.555-8.693-7.584-20.333-2.667-30.027 79.805-156.861 176.779-253.835 334.749-334.779 9.611-5.027 21.389-3.973 30.112 2.611l132.472 100.36c6.693 6.693 16.723 9.083 25.779 6 64.416-21.277 131.944-32.056 200.723-32.056 13.944 0 25.277-11.333 25.277-25.277v-187.528z" />
<glyph unicode="&#xe918;" glyph-name="right" d="M1017.75 463.084l-320 320c-8.334 8.334-21.834 8.334-30.166 0-8.334-8.334-8.334-21.834 0-30.166l283.584-283.584h-929.834c-11.792 0-21.334-9.542-21.334-21.334s9.542-21.334 21.334-21.334h929.834l-283.584-283.582c-8.334-8.334-8.334-21.834 0-30.166 4.166-4.166 9.626-6.25 15.084-6.25s10.916 2.084 15.084 6.25l320 320c8.332 8.332 8.332 21.832-0.002 30.166z" />
<glyph unicode="&#xe919;" glyph-name="right-arrow" d="M743.156 728.843l-45.612-45.614 202.973-202.975h-900.517v-64.509h900.517l-202.973-202.973 45.612-45.614 280.844 280.844z" />
<glyph unicode="&#xe91a;" glyph-name="right-arrow-1" d="M872.174 599.825l-45.612-45.614 73.955-73.955h-900.517v-64.509h900.517l-73.955-73.957 45.612-45.614 151.826 151.826z" />
<glyph unicode="&#xe91b;" glyph-name="right-arrow-2" d="M268.194 960l-24.388-24.37 487.63-487.63-487.63-487.63 24.388-24.37 512 512z" />
<glyph unicode="&#xe91c;" glyph-name="right-arrow-3" d="M1024 448.003l-163.881 163.879v-131.626h-860.119v-64.509h860.119v-131.628z" />
<glyph unicode="&#xe91d;" glyph-name="right-1" d="M762.085 462.755l-469.337 490.671c-8.166 8.458-21.666 8.834-30.166 0.666-8.5-8.146-8.792-21.646-0.666-30.166l455.21-475.921-455.212-475.923c-8.126-8.52-7.834-22.020 0.666-30.166 4.126-3.958 9.458-5.916 14.75-5.916 5.626 0 11.208 2.208 15.416 6.584l469.339 490.671c7.876 8.25 7.876 21.25 0 29.5z" />
<glyph unicode="&#xe91e;" d="M756.693-64c-5.907-0.010-11.576 2.326-15.757 6.499l-489.62 489.618c-8.688 8.69-8.688 22.778 0 31.47l489.62 489.62c8.54 8.84 22.627 9.084 31.47 0.547 8.84-8.54 9.084-22.627 0.547-31.47-0.179-0.186-0.361-0.367-0.547-0.547l-473.863-473.863 473.907-473.863c8.703-8.68 8.719-22.771 0.040-31.474-4.185-4.194-9.871-6.547-15.796-6.537z" />
<glyph unicode="&#xe91f;" d="M756.693-64c-5.907-0.010-11.576 2.326-15.757 6.499l-489.62 489.618c-8.688 8.69-8.688 22.778 0 31.47l489.62 489.62c8.54 8.84 22.627 9.084 31.47 0.547 8.84-8.54 9.084-22.627 0.547-31.47-0.179-0.186-0.361-0.367-0.547-0.547l-473.863-473.863 473.907-473.863c8.703-8.68 8.719-22.771 0.040-31.474-4.185-4.194-9.871-6.547-15.796-6.537z" />
<glyph unicode="&#xe920;" glyph-name="left-chevron" d="M296.848 448.121l475.854 475.854c8.112 8.54 7.9 21.989-0.426 30.101-8.326 7.9-21.349 7.9-29.675 0l-491.010-491.010c-8.326-8.326-8.326-21.775 0-30.101l491.010-491.012c8.54-8.112 21.989-7.9 30.101 0.426 7.9 8.326 7.9 21.349 0 29.675l-475.854 476.068z" />
<glyph unicode="&#xe921;" d="M1002.666 469.334h-929.832l283.584 283.584c8.334 8.334 8.334 21.834 0 30.166-8.334 8.334-21.834 8.334-30.166 0l-320-320c-8.334-8.334-8.334-21.834 0-30.166l320-320c4.166-4.166 9.626-6.25 15.084-6.25s10.916 2.084 15.084 6.25c8.334 8.334 8.334 21.834 0 30.166l-283.586 283.582h929.834c11.792 0 21.334 9.542 21.334 21.334-0.002 11.792-9.544 21.334-21.336 21.334z" />
<glyph unicode="&#xe922;" d="M1002.666 469.334h-929.832l283.584 283.584c8.334 8.334 8.334 21.834 0 30.166-8.334 8.334-21.834 8.334-30.166 0l-320-320c-8.334-8.334-8.334-21.834 0-30.166l320-320c4.166-4.166 9.626-6.25 15.084-6.25s10.916 2.084 15.084 6.25c8.334 8.334 8.334 21.834 0 30.166l-283.586 283.582h929.834c11.792 0 21.334 9.542 21.334 21.334-0.002 11.792-9.544 21.334-21.336 21.334z" />
<glyph unicode="&#xe923;" glyph-name="visual-communication" d="M189.054 474.628c-10.068-12.124-10.068-29.722 0-41.846 42.198-50.81 106.474-79.952 176.346-79.952s134.148 29.14 176.348 79.952c10.068 12.124 10.068 29.722 0 41.846-42.196 50.81-106.472 79.952-176.346 79.952s-134.15-29.14-176.348-79.952zM518.668 455.46c0.832-1 0.832-2.51 0-3.51-17.044-20.522-38.32-36.952-62.366-48.638 17.214 31.014 17.614 69.048 0.002 100.786 24.046-11.684 45.322-28.116 62.364-48.638zM391.122 523.042c64.176-23.806 64.142-114.886-0.008-138.674-17.176-2.048-34.244-2.048-51.424 0-64.124 23.78-64.204 114.86-0.008 138.674 17.186 2.050 34.254 2.050 51.44 0zM212.134 455.46c17.044 20.522 38.318 36.952 62.364 48.638-17.244-31.074-17.58-69.106 0.002-100.786-24.044 11.686-45.32 28.116-62.364 48.638-0.834 1.002-0.834 2.51-0.002 3.51zM380.402 600.298v14.582c0 8.286-6.716 15-15 15s-15-6.714-15-15v-14.582c0-8.286 6.716-15 15-15s15 6.716 15 15zM485.206 571.788l5.964 5.964c5.858 5.86 5.858 15.356 0 21.214-5.858 5.856-15.356 5.856-21.212 0l-5.964-5.964c-5.858-5.86-5.858-15.356 0-21.214s15.354-5.856 21.212 0zM266.812 571.788c5.858 5.86 5.858 15.356 0 21.214l-5.964 5.964c-5.858 5.856-15.356 5.856-21.212 0-5.858-5.86-5.858-15.356 0-21.214l5.964-5.964c5.858-5.858 15.354-5.856 21.212 0zM917.99 811.584h-187.598c-8.284 0-15-6.714-15-15s6.716-15 15-15h187.598c8.284 0 15 6.714 15 15s-6.716 15-15 15zM917.99 743.428h-187.598c-8.284 0-15-6.714-15-15s6.716-15 15-15h187.598c8.284 0 15 6.714 15 15s-6.716 15-15 15zM821.306 675.272h-90.916c-8.284 0-15-6.714-15-15s6.716-15 15-15h90.916c8.284 0 15 6.714 15 15s-6.716 15-15 15zM971.628 886.088h-294.88c-28.876 0-52.37-23.492-52.37-52.37v-105.998h-594.278c-16.598 0-30.1-13.504-30.1-30.1v-97.080c0-8.286 6.716-15 15-15s15.050 6.714 15.050 15v97.18h594.33v-74.58c0-20.192 11.294-38.226 29.478-47.066 0.948-0.46 1.96-1.4 1.96-2.654v-46.964c0-11.062 6.652-20.824 16.946-24.874 9.648-3.792 20.418-1.768 28.036 5.396v-54.55c-24.854 3.676-51.528 3.454-76.908 1.968-15.022-0.892-26.994-12.888-27.846-27.876-3.054-51.974-0.806-109.392 29.458-145.458h-595.504v249.47c0 8.286-6.716 15-15 15s-15-6.714-15-15v-324.432c0-16.598 13.502-30.1 30.1-30.1h177.436l-61.914-136.088h-75.81c-8.284 0-15-6.714-15-15s6.716-15 15-15h591.18c8.284 0 15 6.714 15 15s-6.716 15-15 15h-75.814l-61.914 136.088h177.436c14.828 0 27.158 10.79 29.622 24.924l28.766-28.766c10.516-10.514 27.064-11.528 38.75-2.57l19.976-19.976c5.858-5.856 15.356-5.858 21.212 0.002 5.858 5.858 5.858 15.354 0 21.212l-19.772 19.77 40.586 40.586 106.296-106.314-40.586-40.588-37.044 37.044c-5.858 5.856-15.356 5.856-21.212 0-5.858-5.86-5.858-15.356 0-21.214l40.606-40.606c9.746-9.698 25.594-9.706 35.326 0.026l47.63 47.632c9.882 9.828 9.756 25.704 0.030 35.378l-110.040 110.058c3.918 5.116 6.066 11.324 6.066 17.876 0 7.88-3.070 15.292-8.642 20.864l-63.024 63.026c-3.48 3.48-7.624 5.888-12.024 7.264-7.89 47.732-36.204 72.172-72.424 83.944v93.508l24.628 26.466c3.090 3.32 7.462 5.224 11.998 5.224h204.204c28.878 0 52.372 23.494 52.372 52.372v210.574c0 28.878-23.494 52.372-52.372 52.372zM278.39 39.912l34.036 70.66c0.678 1.402 2.104 2.308 3.634 2.308h98.68c1.534 0 2.954-0.892 3.626-2.292l34.044-70.678h-174.020zM552.22 39.912h-66.512l-40.306 83.682c-5.626 11.716-17.662 19.288-30.662 19.288h-98.68c-12.964 0-24.994-7.558-30.654-19.272l-40.314-83.698h-66.512l61.914 136.088h249.81zM700.7 206.050h-670.7v45.010h642.070c5.232-1.588 10.804-2.884 16.734-3.864 1.376-4.396 3.782-8.538 7.26-12.014l4.636-4.716zM856.708 270.478l-76.758-76.756-62.322 62.322 76.756 76.758zM773.912 354.72c-0.126-0.122-0.264-0.228-0.39-0.352l-77.458-77.458c-0.128-0.128-0.236-0.27-0.36-0.4-28.344 4.216-46.862 17.384-57.826 41.044-10.984 23.702-14.768 57.672-11.9 106.912 33.49 1.946 76.674 2.112 106.906-11.904 23.656-10.968 36.818-29.49 41.028-57.842zM994 623.14c0-12.336-10.036-22.372-22.372-22.372h-204.204c-12.834 0-25.212-5.388-33.958-14.788l-47.648-51.204v38.64c0 12.628-7.222 23.984-18.846 29.634-7.768 3.778-12.594 11.472-12.594 20.086v210.582c0 12.334 10.034 22.37 22.37 22.37h294.88c12.336 0 22.372-10.036 22.372-22.372z" />
<glyph unicode="&#xe924;" glyph-name="investment" d="M532 368v23.44c23.278 8.256 40 30.486 40 56.56 0 33.084-26.916 60-60 60-11.028 0-20 8.972-20 20s8.972 20 20 20c6.35 0 12.184-2.92 16.008-8.012 6.634-8.83 19.17-10.614 28.004-3.98 8.832 6.634 10.614 19.17 3.98 28.002-7.15 9.518-16.978 16.596-27.992 20.51v23.48c0 11.046-8.956 20-20 20s-20-8.954-20-20v-23.44c-23.278-8.256-40-30.486-40-56.56 0-33.084 26.916-60 60-60 11.028 0 20-8.972 20-20s-8.972-20-20-20c-6.35 0-12.184 2.92-16.008 8.012-6.636 8.83-19.172 10.614-28.004 3.98s-10.614-19.17-3.98-28.002c7.15-9.518 16.978-16.596 27.992-20.51v-23.48c0-11.046 8.956-20 20-20s20 8.954 20 20zM371.998 750.478c9.566 5.522 12.846 17.754 7.322 27.32l-60 103.94c-5.52 9.564-17.75 12.846-27.318 7.322-9.566-5.522-12.846-17.754-7.322-27.32l60-103.94c5.548-9.612 17.798-12.818 27.318-7.322zM873.062 762.642l-103.942-60c-9.566-5.522-12.846-17.754-7.324-27.32 5.55-9.614 17.8-12.818 27.32-7.322l103.942 60c9.566 5.522 12.846 17.754 7.324 27.32-5.52 9.564-17.752 12.846-27.32 7.322zM268.18 653c5.524 9.566 2.244 21.798-7.322 27.32l-103.94 60c-9.566 5.526-21.798 2.244-27.318-7.322-5.524-9.566-2.244-21.798 7.322-27.32l103.94-60c9.502-5.488 21.764-2.302 27.318 7.322zM670.66 790.122l60 103.94c5.524 9.566 2.244 21.798-7.322 27.32-9.566 5.524-21.798 2.244-27.318-7.322l-60-103.94c-5.524-9.566-2.244-21.798 7.322-27.32 9.502-5.49 21.764-2.304 27.318 7.322zM532 808v132c0 11.046-8.956 20-20 20s-20-8.954-20-20v-132c0-11.046 8.956-20 20-20s20 8.954 20 20zM72 548c-11.044 0-20-8.954-20-20s8.956-20 20-20h120c11.044 0 20 8.954 20 20s-8.956 20-20 20zM972 528c0 11.046-8.956 20-20 20h-120c-11.044 0-20-8.954-20-20s8.956-20 20-20h120c11.044 0 20 8.954 20 20zM712 328c0-11.046-8.954-20-20-20s-20 8.954-20 20c0 11.046 8.954 20 20 20s20-8.954 20-20zM730.628 386.85c10.376-3.792 21.858 1.546 25.648 11.922 10.434 28.554 15.724 58.574 15.724 89.228 0 154.422-134.53 276.606-291.412 258.144-113.794-13.36-207.73-103.606-225.33-216.4-11.524-73.872 7.474-146.282 53.496-203.884 39.012-48.852 63.246-128.544 63.246-207.98v-81.88c0-55.14 44.86-100 100-100h80c57.944 0 100 47.624 100 113.24v79.7c0 35.282 6.994 73.704 20.226 111.108 3.684 10.414-1.772 21.842-12.186 25.526-10.418 3.682-21.84-1.772-25.526-12.186-13.864-39.19-21.57-79.61-22.43-117.388h-200.462c-3.36 82.944-29.586 162.196-71.616 214.824-38.94 48.742-55 110.092-45.224 172.752 14.78 94.722 94.884 171.618 190.474 182.84 136.332 16.044 246.744-90.868 246.744-218.416 0-25.956-4.472-51.36-13.292-75.502-3.792-10.374 1.546-21.858 11.92-25.648zM412 96h200v-40h-60c-11.044 0-20-8.954-20-20s8.956-20 20-19.98h54.544c-9.032-24.772-28.776-40.020-54.544-40.020h-80c-26.072 0-48.304 16.722-56.56 40h56.56c11.044 0 20 8.954 20 20s-8.956 20-20 20h-60z" />
<glyph unicode="&#xe925;" glyph-name="target" d="M891.318 712.36c9.592 0 18.84 3.806 25.662 10.63l100.536 100.536c13.434 13.434 4.686 36.49-14.242 37.678l-53.5 3.358 34.91 34.91c5.858 5.858 5.858 15.356 0 21.212-5.86 5.858-15.356 5.858-21.214 0l-34.91-34.91-3.358 53.5c-1.19 18.962-24.268 27.65-37.678 14.242l-100.538-100.536c-7.362-7.362-11.208-17.544-10.556-27.934l3.456-55.056c-83.908 71.544-192.050 112.572-306.605 112.572-261.579 0-473.281-211.676-473.281-473.279 0-118.062 43.72-231.14 123.11-318.399 5.578-6.126 15.064-6.574 21.19-1 6.128 5.576 6.576 15.062 1.002 21.19-74.354 81.724-115.302 187.63-115.302 298.209 0 244.426 198.856 443.281 443.281 443.281 114.544 0 222.328-43.9 302.949-119.118l-68.444-68.442c-61.898 56.818-144.312 91.588-234.506 91.588-191.506 0-347.307-155.802-347.307-347.307 0-55.116 13.296-110.014 38.456-158.762 0.002-0.002 0.002-0.004 0.004-0.006 58.298-112.962 175.708-188.54 308.849-188.54 164.058 0 306.743 115.878 340.091 276.691 1.682 8.112-3.53 16.052-11.642 17.734-8.11 1.682-16.050-3.53-17.732-11.642-30.376-146.472-161.050-252.784-310.715-252.784-119.218 0-227.35 66.022-282.191 172.298 0 0.002-0.002 0.004-0.002 0.006-23.3 45.15-35.116 93.936-35.116 145.004 0 174.964 142.344 317.307 317.307 317.307 81.94 0 156.856-31.404 213.298-82.794l-67.834-67.834c-38.928 34.016-89.828 54.656-145.464 54.656-122.044 0-221.334-99.29-221.334-221.334s99.29-221.334 221.334-221.334 221.336 99.29 221.336 221.334c0 55.636-20.64 106.536-54.658 145.464l67.838 67.838c50.992-55.988 82.322-130.18 82.786-211.456 0.046-8.254 6.754-14.914 14.998-14.914h0.088c8.284 0.048 14.96 6.802 14.914 15.086-0.512 89.47-35.194 171.096-91.572 232.5l68.448 68.448c74.894-80.078 119.102-187.222 119.102-302.963-0.002-244.432-198.856-443.287-443.281-443.287-101.258 0-200.27 35.028-278.795 98.63-6.442 5.212-15.88 4.222-21.098-2.214-5.214-6.438-4.222-15.884 2.214-21.098 83.852-67.916 189.57-105.318 297.679-105.318 261.579 0 473.281 211.676 473.281 473.281 0 102.426-32.188 199.908-93.080 281.903-6.304 8.49-12.87 16.72-19.656 24.714 58.802-3.694 55.632-3.54 57.492-3.54zM664.617 409.283c0-105.502-85.832-191.334-191.336-191.334-105.502 0-191.334 85.832-191.334 191.334s85.832 191.334 191.334 191.334c47.364 0 90.756-17.306 124.204-45.916l-68.26-68.26c-15.728 11.434-35.056 18.204-55.944 18.204-52.582 0-95.362-42.78-95.362-95.362s42.78-95.362 95.362-95.362c52.584 0 95.364 42.78 95.364 95.362 0 20.89-6.77 40.218-18.204 55.944l68.26 68.26c28.608-33.448 45.916-76.84 45.916-124.204zM462.673 398.675c5.86-5.858 15.356-5.858 21.214 0l44.964 44.964c6.2-9.99 9.792-21.76 9.792-34.358 0-36.042-29.322-65.362-65.364-65.362s-65.362 29.322-65.362 65.362 29.32 65.362 65.362 65.362c12.598 0 24.368-3.592 34.358-9.79l-44.966-44.966c-5.856-5.856-5.856-15.354 0.002-21.212zM806.372 826.926c-0.114 1.802 0.554 3.568 1.83 4.842l88.156 88.154 3.918-62.432-90.164-90.164zM831.326 746.114l90.164 90.164 62.432-3.918-88.156-88.156c-1.274-1.276-3.054-1.954-4.842-1.83z" />
<glyph unicode="&#xe926;" glyph-name="quotation" d="M955.23 755.3c-46.274 51.982-102.434 78.34-166.92 78.34-57.956 0-107.088-20.638-146.042-61.338-38.706-40.44-58.332-90.67-58.332-149.298 0-55.404 19.824-104.774 58.922-146.742 34.488-37.024 77.934-60.574 129.366-70.172-8.994-68.19-69.276-129.912-179.532-183.692l-19.854-9.686 81.402-150.28 18.376 9.314c233.162 118.188 351.384 285.218 351.384 496.452 0 72.876-23.136 135.824-68.77 187.102zM671.75 119.014l-40.784 75.284c122.646 64.266 184.784 141.52 184.784 229.848v18.912l-18.79 2.128c-50.61 5.728-90.882 25.334-123.116 59.94-32.002 34.354-47.56 72.91-47.56 117.878 0 48.016 15.238 87.272 46.578 120.020 31.086 32.482 68.852 48.272 115.45 48.272 52.61 0 96.862-20.984 135.284-64.148 39.068-43.896 58.060-95.888 58.060-158.948 0-96.814-27.262-184.218-81.024-259.784-51.3-72.1-128.242-135.754-228.882-189.402zM381.276 755.394c-46.786 51.918-103.18 78.244-167.618 78.244-58.012 0-106.922-20.676-145.364-61.452-38.112-40.424-57.438-90.616-57.438-149.184 0-55.402 19.824-104.772 58.918-146.742 34.416-36.944 77.34-60.472 127.816-70.114-8.886-68.242-68.666-129.994-178.038-183.784l-19.552-9.612 79.376-150.388 18.558 9.364c234.22 118.182 352.98 285.22 352.98 496.472-0.002 72.932-23.434 135.914-69.638 187.196zM97.318 119.084l-39.672 75.168c121.756 64.29 183.45 141.562 183.45 229.894v18.87l-18.748 2.164c-49.572 5.72-89.348 25.328-121.592 59.946-32.002 34.352-47.556 72.91-47.556 117.876 0 48.078 15.016 87.376 45.902 120.134 30.55 32.404 68.024 48.158 114.556 48.158 52.662 0 97.204-21.014 136.158-64.246 39.534-43.872 58.752-95.834 58.752-158.85 0-96.798-27.38-184.19-81.386-259.748-51.522-72.080-128.794-135.724-229.864-189.366z" />
<glyph unicode="&#xe927;" glyph-name="right-quotation-mark" d="M354.468 881.226h-236.312c-32.825 0-60.72-11.488-83.699-34.459-22.968-22.975-34.457-50.87-34.457-83.697v-236.303c0-32.825 11.482-60.716 34.457-83.686 22.977-22.968 50.881-34.461 83.699-34.461h137.846c16.405 0 30.357-5.746 41.845-17.23 11.488-11.478 17.23-25.434 17.23-41.852v-19.681c0-43.49-15.388-80.606-46.154-111.381-30.769-30.76-67.894-46.145-111.388-46.145h-39.38c-10.674 0-19.901-3.908-27.699-11.697-7.792-7.79-11.691-17.024-11.691-27.691v-78.779c0-10.65 3.899-19.901 11.691-27.693 7.805-7.788 17.024-11.697 27.699-11.697h39.382c42.671 0 83.389 8.32 122.161 24.93 38.77 16.612 72.306 39.080 100.615 67.389 28.303 28.311 50.767 61.841 67.381 100.613 16.612 38.77 24.921 79.485 24.921 122.15v433.225c0 32.827-11.488 60.72-34.459 83.691s-50.872 34.457-83.689 34.457zM989.531 846.767c-22.968 22.97-50.866 34.459-83.691 34.459h-236.303c-32.825 0-60.72-11.488-83.691-34.459-22.968-22.977-34.452-50.87-34.452-83.697v-236.303c0-32.825 11.484-60.716 34.452-83.686 22.97-22.968 50.868-34.461 83.691-34.461h137.846c16.405 0 30.368-5.746 41.854-17.23 11.475-11.484 17.23-25.434 17.23-41.852v-19.681c0-43.49-15.388-80.606-46.161-111.381-30.766-30.76-67.883-46.145-111.381-46.145h-39.388c-10.665 0-19.901-3.908-27.691-11.697-7.796-7.79-11.7-17.024-11.7-27.691v-78.779c0-10.65 3.903-19.901 11.7-27.693 7.788-7.788 17.024-11.697 27.691-11.697h39.388c42.664 0 83.38 8.32 122.156 24.93 38.763 16.612 72.295 39.080 100.606 67.389 28.309 28.311 50.786 61.85 67.389 100.613 16.61 38.761 24.923 79.485 24.923 122.15v433.225c-0.006 32.827-11.484 60.72-34.47 83.689z" />
<glyph unicode="&#xe928;" glyph-name="right-quote" d="M227.093 809.414c-125.218 0-227.077-101.859-227.077-227.078 0-120.797 94.797-219.874 213.906-226.718 2.062-22.266 0.515-82.875-57.563-167.187-4.39-6.36-3.594-14.938 1.859-20.39 23.766-23.766 38.454-38.734 48.734-49.203 13.454-13.688 19.595-19.938 28.579-28.094 3.046-2.765 6.89-4.155 10.75-4.155 3.749 0 7.483 1.312 10.499 3.922 101.203 88.062 213.626 270.016 197.36 492.984-9.531 130.906-105.016 225.922-227.048 225.922zM246.437 124.446c-4.358 4.296-9.328 9.358-16.656 16.813-8.906 9.077-21.125 21.515-39.656 40.109 70.485 108.61 57.171 185.968 51.344 197.062-2.766 5.266-8.438 8.813-14.376 8.813-107.562 0-195.077 87.515-195.077 195.093 0 107.563 87.515 195.078 195.077 195.078 104.782 0 186.845-82.531 195.141-196.234 18.281-250.782-130.765-413.61-175.797-456.734zM1022.407 583.492v0.016c-9.563 130.89-105.062 225.906-227.062 225.906-125.219 0-227.094-101.859-227.094-227.078 0-120.797 94.813-219.874 213.938-226.718 2.062-22.25 0.499-82.827-57.594-167.187-4.39-6.36-3.594-14.938 1.859-20.39 23.672-23.672 38.328-38.61 48.61-49.062 13.515-13.781 19.688-20.062 28.718-28.25 3.046-2.75 6.906-4.141 10.75-4.141 3.75 0 7.485 1.312 10.499 3.938 101.203 88.062 213.626 270.014 197.376 492.968zM814.687 124.446c-4.39 4.328-9.405 9.421-16.797 16.952-8.906 9.064-21.077 21.469-39.531 39.97 70.485 108.626 57.189 185.968 51.376 197.062-2.766 5.25-8.453 8.813-14.39 8.813-107.579 0-195.094 87.515-195.094 195.093 0 107.563 87.515 195.078 195.094 195.078 104.765 0 186.843-82.531 195.155-196.25v0.016c18.266-250.75-130.781-413.61-175.813-456.734z" />
<glyph unicode="&#xe929;" glyph-name="quotation-1" d="M456 722c11.046 0 20 8.956 20 20v64c0 55.14-44.86 100-100 100h-276c-55.14 0-100-44.86-100-100v-239.976c0-55.14 44.86-100 100-100h129.384c-4.552-149.412-61.242-227.084-172.918-237.244-10.302-0.938-18.188-9.574-18.188-19.918v-198.862c0-5.5 2.264-10.756 6.26-14.534 3.724-3.518 8.642-5.466 13.738-5.466 0.374 0 0.75 0.010 1.124 0.032 137.816 7.752 243.022 55.182 312.698 140.974 68.944 84.892 103.902 208.936 103.902 368.69v71.638c0 11.044-8.954 20-20 20s-20-8.956-20-20v-71.638c0-293.288-117.070-446.662-357.72-468.194v159.672c60.822 9.46 107.868 37.772 140.014 84.322 34.098 49.382 51.388 120.212 51.388 210.528 0 11.044-8.954 20-20 20h-149.682c-33.084 0-60 26.916-60 60v239.976c0 33.084 26.916 60 60 60h276c33.084 0 60-26.916 60-60v-64c0-11.044 8.954-20 20-20zM924 906h-276c-55.14 0-100-44.86-100-100v-239.976c0-55.14 44.86-100 100-100h129.384c-4.552-149.412-61.242-227.084-172.918-237.244-10.3-0.938-18.188-9.574-18.188-19.918v-198.862c0-5.5 2.264-10.756 6.26-14.534 3.724-3.52 8.642-5.466 13.738-5.466 0.374 0 0.75 0.010 1.124 0.032 137.816 7.752 243.022 55.182 312.698 140.974 68.944 84.89 103.902 208.936 103.902 368.69v306.304c0 55.14-44.86 100-100 100zM984 499.696c0-293.288-117.070-446.662-357.722-468.194v159.672c60.824 9.46 107.87 37.772 140.014 84.322 34.098 49.38 51.388 120.21 51.388 210.528 0 11.044-8.954 20-20 20h-149.68c-33.084 0-60 26.916-60 60v239.976c0 33.084 26.916 60 60 60h240v-148.068c0-11.044 8.954-20 20-20s20 8.956 20 20v147.92c31.224-2.068 56-28.114 56-59.852v-306.304zM908 668.498c-11.046 0-20-9.054-20-20.098s8.954-20 20-20c11.044 0 20 8.956 20 20v0.198c0 11.044-8.954 19.9-20 19.9zM456 676.668c-11.046 0-20-8.956-20-20v-0.418c0-11.044 8.954-20 20-20s20 8.956 20 20v0.418c0 11.044-8.954 20-20 20z" />
<glyph unicode="&#xe92a;" glyph-name="settings" d="M559.787-64h-95.573c-32.299 0-59.563 24.192-63.403 56.32l-10.197 80.043c-20.352 6.613-39.979 14.763-58.624 24.277l-63.744-49.536c-25.856-20.011-62.251-17.707-84.693 5.376l-67.2 67.2c-22.912 22.229-25.216 58.624-5.205 84.437l49.536 63.787c-9.557 18.645-17.707 38.272-24.277 58.624l-80.213 10.197c-32 3.925-56.192 31.189-56.192 63.488v95.573c0 32.299 24.192 59.563 56.32 63.403l80.043 10.197c6.613 20.352 14.763 39.979 24.277 58.624l-49.493 63.744c-20.053 25.856-17.707 62.293 5.419 84.736l67.2 67.2c22.229 22.912 58.667 25.173 84.437 5.205l63.744-49.579c18.645 9.515 38.272 17.664 58.667 24.277l10.197 80.213c3.84 32 31.104 56.192 63.403 56.192h95.573c32.299 0 59.563-24.192 63.403-56.32l10.197-80.043c20.395-6.613 40.021-14.763 58.667-24.277l63.744 49.536c25.899 20.011 62.251 17.707 84.693-5.419l67.2-67.2c22.912-22.229 25.216-58.624 5.205-84.437l-49.536-63.787c9.557-18.645 17.707-38.272 24.277-58.624l80.213-10.197c31.957-3.883 56.149-31.147 56.149-63.445v-95.573c0-32.299-24.192-59.563-56.32-63.403l-80.043-10.197c-6.613-20.352-14.763-39.979-24.277-58.624l49.536-63.744c20.053-25.856 17.707-62.251-5.419-84.693l-67.2-67.2c-22.229-22.912-58.667-25.259-84.437-5.205l-63.787 49.536c-18.645-9.557-38.272-17.707-58.624-24.277l-10.197-80.213c-3.883-32-31.147-56.192-63.445-56.192zM329.813 143.36c3.541 0 7.168-0.896 10.411-2.688 23.509-13.141 48.981-23.723 75.691-31.403 8.192-2.347 14.208-9.344 15.275-17.792l11.947-93.867c1.28-10.709 10.539-18.944 21.077-18.944h95.573c10.539 0 19.797 8.235 21.035 18.731l11.989 94.037c1.067 8.448 7.083 15.445 15.275 17.792 26.709 7.68 52.181 18.261 75.691 31.403 7.467 4.181 16.768 3.456 23.467-1.792l74.667-58.027c8.576-6.656 20.608-6.101 27.947 1.451l67.627 67.627c7.723 7.509 8.32 19.541 1.664 28.16l-58.027 74.667c-5.248 6.741-5.973 16-1.792 23.467 13.141 23.509 23.723 48.981 31.403 75.691 2.347 8.192 9.344 14.208 17.792 15.275l93.867 11.947c10.709 1.323 18.944 10.581 18.944 21.12v95.573c0 10.539-8.235 19.797-18.731 21.035l-94.037 11.989c-8.448 1.067-15.445 7.083-17.792 15.275-7.68 26.709-18.261 52.181-31.403 75.691-4.181 7.467-3.499 16.725 1.792 23.467l58.027 74.667c6.699 8.619 6.101 20.651-1.408 27.904l-67.627 67.627c-7.467 7.765-19.541 8.363-28.16 1.664l-74.667-58.027c-6.784-5.248-16.043-5.973-23.509-1.792-23.424 13.141-48.896 23.68-75.691 31.403-8.192 2.347-14.208 9.344-15.275 17.792l-11.947 93.867c-1.323 10.752-10.581 18.987-21.12 18.987h-95.573c-10.539 0-19.797-8.235-21.035-18.731l-11.989-94.037c-1.067-8.448-7.083-15.445-15.275-17.835-26.795-7.68-52.267-18.261-75.691-31.36-7.467-4.224-16.725-3.456-23.509 1.749l-74.667 58.027c-8.619 6.699-20.608 6.101-27.904-1.408l-67.627-67.669c-7.723-7.509-8.32-19.541-1.664-28.16l58.027-74.667c5.248-6.741 5.973-16 1.792-23.467-13.184-23.509-23.723-48.981-31.403-75.691-2.347-8.192-9.344-14.208-17.792-15.275l-93.867-11.947c-10.709-1.28-18.944-10.539-18.944-21.077v-95.573c0-10.539 8.235-19.797 18.731-21.035l94.037-11.989c8.448-1.067 15.445-7.083 17.792-15.275 7.68-26.709 18.261-52.181 31.403-75.691 4.181-7.467 3.499-16.725-1.792-23.467l-58.027-74.667c-6.699-8.619-6.101-20.651 1.408-27.904l67.627-67.627c7.467-7.723 19.456-8.32 28.16-1.664l74.667 58.027c3.883 2.901 8.491 4.437 13.141 4.437zM512 234.667c-117.632 0-213.333 95.701-213.333 213.333s95.701 213.333 213.333 213.333 213.333-95.701 213.333-213.333-95.701-213.333-213.333-213.333zM512 618.667c-94.123 0-170.667-76.544-170.667-170.667s76.544-170.667 170.667-170.667 170.667 76.544 170.667 170.667-76.544 170.667-170.667 170.667z" />
<glyph unicode="&#xe92b;" glyph-name="megaphone" d="M716.8 849.066c-37.65 0-68.266-30.618-68.266-68.266v-12.34l-398.882-159.54c-6.468-2.612-10.718-8.874-10.718-15.854v-238.934c0-6.98 4.25-13.244 10.718-15.838l398.882-159.54v-12.356c0-37.65 30.618-68.266 68.266-68.266s68.266 30.618 68.266 68.266v614.402c0 37.65-30.616 68.266-68.266 68.266zM750.934 166.4c0-18.824-15.308-34.134-34.134-34.134s-34.134 15.308-34.134 34.134v23.894c0 6.998-4.25 13.26-10.734 15.854l-398.866 159.54v215.824l398.866 159.54c6.486 2.612 10.734 8.874 10.734 15.854v23.894c0 18.824 15.308 34.134 34.134 34.134s34.134-15.308 34.134-34.134v-614.4zM256 610.134h-119.466c-75.282 0-136.534-61.252-136.534-136.534s61.252-136.534 136.534-136.534h119.466c9.42 0 17.066 7.628 17.066 17.066v238.934c0 9.422-7.646 17.068-17.066 17.068zM238.934 371.2h-102.4c-56.474 0-102.4 45.926-102.4 102.4s45.926 102.4 102.4 102.4h102.4v-204.8zM875.794 540.996l-102.4 34.134c-5.222 1.724-10.906 0.854-15.378-2.356-4.454-3.208-7.082-8.362-7.082-13.842v-170.666c0-5.478 2.628-10.632 7.082-13.858 2.952-2.116 6.452-3.208 9.984-3.208 1.81 0 3.636 0.29 5.394 0.888l102.4 34.134c6.98 2.304 11.674 8.824 11.674 16.18v102.4c-0.002 7.354-4.694 13.856-11.674 16.194zM853.334 434.706l-68.266-22.75v123.306l68.266-22.75v-77.806zM339.746 140.92l-17.134 17.152-50.056 200.192c-1.894 7.594-8.722 12.936-16.554 12.936h-136.536c-5.222 0-10.138-2.39-13.38-6.452-3.242-4.096-4.438-9.438-3.242-14.524l68.266-290.134c1.86-7.834 8.84-13.158 16.606-13.158 1.076 0 2.15 0.102 3.242 0.324l128.17 24.746c0.17 0.034 0.342 0.068 0.512 0.102 7.51 1.69 14.37 5.444 19.832 10.82 7.782 7.698 12.1 17.938 12.168 28.894 0.070 10.942-4.128 21.25-11.894 29.102zM315.494 107.23c-0.87-0.87-1.962-1.468-3.158-1.774l-111.736-21.59-59.58 253.202h101.65l47.992-191.864c0.75-3.004 2.304-5.752 4.488-7.936l20.412-20.412c1.724-1.724 1.962-3.754 1.962-4.83-0.016-1.042-0.288-3.072-2.030-4.796zM921.6 490.666h102.4v-34.134h-102.4v34.134zM912.785 641.787l85.323 51.21 17.564-29.265-85.323-51.21-17.564 29.265zM912.938 305.374l17.562 29.27 85.335-51.201-17.562-29.27-85.335 51.201zM648.534 763.734h34.134v-580.266h-34.134v580.266zM170.666 541.866h34.134v-68.266h-34.134v68.266zM102.4 541.866h34.134v-68.266h-34.134v68.266z" />
<glyph unicode="&#xe92c;" glyph-name="website" d="M58.72 782c0-24.814 20.242-45 45.122-45s45.12 20.186 45.12 45-20.24 45-45.12 45-45.122-20.186-45.122-45zM118.962 782c0-8.272-6.784-15-15.122-15s-15.12 6.728-15.12 15 6.784 15 15.122 15 15.12-6.728 15.12-15zM279.488 782c0 24.814-20.242 45-45.122 45s-45.12-20.186-45.12-45 20.242-45 45.122-45 45.12 20.186 45.12 45zM219.246 782c0 8.272 6.784 15 15.122 15s15.122-6.728 15.122-15-6.784-15-15.122-15-15.122 6.728-15.122 15zM406.25 782c0 24.814-20.242 45-45.122 45s-45.122-20.186-45.122-45 20.242-45 45.122-45 45.122 20.186 45.122 45zM346.006 782c0 8.272 6.784 15 15.122 15s15.122-6.728 15.122-15-6.784-15-15.122-15-15.122 6.728-15.122 15zM917.618 737c24.878 0 45.122 20.186 45.122 45s-20.242 45-45.122 45h-421.698c-24.88 0-45.122-20.186-45.122-45s20.242-45 45.122-45zM480.798 782c0 8.272 6.784 15 15.122 15h421.698c8.338 0 15.122-6.728 15.122-15s-6.784-15-15.122-15h-421.698c-8.338 0-15.122 6.728-15.122 15zM969 892h-783c-8.284 0-15-6.716-15-15s6.716-15 15-15h783c13.786 0 25-11.214 25-25v-129h-964v129c0 13.786 11.214 25 25 25h61c8.284 0 15 6.716 15 15s-6.716 15-15 15h-61c-30.328 0-55-24.672-55-55v-778c0-30.328 24.672-55 55-55h914c30.328 0 55 24.672 55 55v97c0 8.284-6.714 15-15 15s-15-6.716-15-15v-97c0-13.786-11.214-25-25-25h-914c-13.786 0-25 11.214-25 25v619h964v-452c0-8.284 6.714-15 15-15s15 6.716 15 15v611c0 30.328-24.674 55-55 55zM747 523h-115c-8.286 0-15-6.716-15-15s6.714-15 15-15h115c19.298 0 35 15.702 35 35v80c0 19.298-15.702 35-35 35h-468c-19.298 0-35-15.702-35-35v-80c0-19.298 15.702-35 35-35h283c8.286 0 15 6.716 15 15s-6.714 15-15 15h-283c-2.756 0-5 2.244-5 5v80c0 2.756 2.244 5 5 5h468c2.758 0 5-2.244 5-5v-80c0-2.756-2.242-5-5-5zM512 458c-54.588 0-99-44.412-99-99s44.412-99 99-99 99 44.412 99 99-44.412 99-99 99zM512 290c-38.046 0-69 30.954-69 69s30.954 69 69 69 69-30.954 69-69-30.954-69-69-69zM790 458c-54.588 0-99-44.412-99-99s44.412-99 99-99 99 44.412 99 99-44.412 99-99 99zM790 290c-38.046 0-69 30.954-69 69s30.954 69 69 69 69-30.954 69-69-30.954-69-69-69zM234 458c-54.588 0-99-44.412-99-99s44.412-99 99-99c13.082 0 25.798 2.516 37.8 7.476 7.656 3.166 11.296 11.936 8.132 19.592-3.166 7.658-11.936 11.298-19.592 8.132-8.35-3.45-17.212-5.2-26.34-5.2-38.046 0-69 30.954-69 69s30.954 69 69 69 69-30.954 69-69c0-7.296-1.13-14.474-3.358-21.334-2.558-7.88 1.754-16.34 9.634-18.9 7.882-2.56 16.342 1.756 18.9 9.634 3.202 9.858 4.824 20.154 4.824 30.6 0 54.588-44.412 99-99 99zM314 230h-140c-8.284 0-15-6.716-15-15s6.716-15 15-15h140c8.284 0 15 6.716 15 15s-6.716 15-15 15zM314 170h-160c-8.284 0-15-6.716-15-15s6.716-15 15-15h160c8.284 0 15 6.716 15 15s-6.716 15-15 15zM314 110h-160c-8.284 0-15-6.716-15-15s6.716-15 15-15h160c8.284 0 15 6.716 15 15s-6.716 15-15 15zM592 230h-140c-8.284 0-15-6.716-15-15s6.716-15 15-15h140c8.286 0 15 6.716 15 15s-6.714 15-15 15zM592 170h-160c-8.284 0-15-6.716-15-15s6.716-15 15-15h160c8.286 0 15 6.716 15 15s-6.714 15-15 15zM592 110h-160c-8.284 0-15-6.716-15-15s6.716-15 15-15h160c8.286 0 15 6.716 15 15s-6.714 15-15 15zM870 230h-140c-8.286 0-15-6.716-15-15s6.714-15 15-15h140c8.286 0 15 6.716 15 15s-6.714 15-15 15zM870 170h-160c-8.286 0-15-6.716-15-15s6.714-15 15-15h160c8.286 0 15 6.716 15 15s-6.714 15-15 15zM870 110h-160c-8.286 0-15-6.716-15-15s6.714-15 15-15h160c8.286 0 15 6.716 15 15s-6.714 15-15 15z" />
<glyph unicode="&#xe92d;" glyph-name="move" d="M249.286 598.008c15.548 0 28.198 12.65 28.198 28.198v56.312h56.312c15.548 0 28.198 12.65 28.198 28.198v65.986c0 15.548-12.65 28.198-28.198 28.198h-150.498c-15.548 0-28.198-12.65-28.198-28.198v-150.496c0-15.548 12.65-28.198 28.198-28.198zM185.102 774.898h146.89v-62.38h-56.312c-15.548 0-28.198-12.65-28.198-28.198v-56.312h-62.38zM480.676 539.158h62.646c15.18 0 27.53 12.35 27.53 27.53v89.236h11.866c10.506 0 19.946 5.84 24.634 15.242 4.69 9.4 3.676 20.454-2.642 28.846l-70.718 93.92c-5.25 6.97-13.266 10.968-21.992 10.968s-16.742-3.998-21.994-10.97l-70.718-93.918c-6.32-8.392-7.33-19.446-2.642-28.848 4.69-9.402 14.128-15.242 24.634-15.242h11.864v-89.236c0.002-15.18 12.352-27.528 27.532-27.528zM446.234 685.922l65.764 87.34 65.764-87.34h-21.91c-8.284 0-15-6.716-15-15v-101.764h-57.706v101.764c0 8.284-6.716 15-15 15zM490.008 102.072c5.248-6.972 13.264-10.97 21.992-10.97 8.726 0 16.742 4 21.992 10.97l70.718 93.918c6.32 8.392 7.33 19.446 2.642 28.848-4.69 9.402-14.13 15.242-24.634 15.242h-11.866v89.236c0 15.18-12.35 27.53-27.53 27.53h-62.646c-15.178 0-27.528-12.348-27.53-27.53l0.002-89.236h-11.866c-10.506 0-19.946-5.84-24.634-15.242-4.69-9.4-3.676-20.454 2.642-28.846zM468.148 210.078c3.978 0 7.794 1.58 10.606 4.394 2.814 2.812 4.394 6.628 4.394 10.606l-0.002 101.764h57.706v-101.764c0-8.284 6.716-15 15-15h21.912l-65.766-87.34-65.764 87.34zM249.286 297.992h-65.988c-15.548 0-28.198-12.65-28.198-28.198v-150.496c0-15.548 12.65-28.198 28.198-28.198h150.496c15.548 0 28.198 12.65 28.198 28.198v65.986c0 15.548-12.65 28.198-28.198 28.198h-56.312v56.312c0 15.548-12.648 28.198-28.196 28.198zM331.992 183.482v-62.38h-146.89v146.89h62.38v-56.312c0-15.548 12.65-28.198 28.198-28.198zM690.206 91.102h150.496c15.548 0 28.198 12.65 28.198 28.198v150.496c0 15.548-12.65 28.198-28.198 28.198h-65.986c-15.548 0-28.198-12.65-28.198-28.198v-56.312h-56.312c-15.548 0-28.198-12.65-28.198-28.198v-65.986c0-15.55 12.65-28.198 28.198-28.198zM692.008 183.482h56.312c15.548 0 28.198 12.65 28.198 28.198v56.312h62.38v-146.89h-146.89zM712.766 774.898c8.284 0 15 6.716 15 15s-6.716 15-15 15h-22.562c-15.548 0-28.198-12.65-28.198-28.198v-65.986c0-15.548 12.65-28.198 28.198-28.198h56.312v-56.312c0-15.548 12.65-28.198 28.198-28.198h65.986c15.548 0 28.198 12.65 28.198 28.198v150.498c0 15.548-12.65 28.198-28.198 28.198h-62.56c-8.284 0-15-6.716-15-15s6.716-15 15-15h60.758v-146.89h-62.38v56.31c0 15.548-12.65 28.198-28.198 28.198h-56.312v62.38zM999 833.724c13.786 0 25 11.214 25 25v76.276c0 13.786-11.214 25-25 25h-76.276c-13.786 0-25-11.214-25-25v-23.070h-322.586v23.070c0 13.786-11.214 25-25 25h-76.278c-13.786 0-25-11.214-25-25v-23.070h-322.584v23.070c0 13.786-11.214 25-25 25h-76.276c-13.786 0-25-11.214-25-25v-76.276c0-13.786 11.214-25 25-25h23.070v-322.584h-22.932c-13.784 0-25-11.214-25-25v-76.278c0-13.786 11.214-25 25-25h22.93v-322.584h-23.068c-13.786 0-25-11.214-25-25v-76.278c0-13.786 11.214-25 25-25h76.276c13.786 0 25 11.214 25 25v23.070h322.584v-23.070c0-13.786 11.214-25 25-25h76.278c13.786 0 25 11.214 25 25v23.070h114.978c8.284 0 15 6.716 15 15s-6.716 15-15 15h-114.978v23.208c0 13.786-11.214 25-25 25h-76.278c-13.786 0-25-11.214-25-25v-23.208h-322.584v23.208c0 13.786-11.214 25-25 25h-23.206v322.584h23.346c13.786 0 25 11.214 25 25v76.278c0 13.786-11.214 25-25 25h-23.346v322.584h23.208c13.786 0 25 11.214 25 25v23.206h322.584v-23.206c0-13.786 11.214-25 25-25h76.278c13.786 0 25 11.214 25 25v23.206h322.584v-23.206c0-13.786 11.214-25 25-25h23.208v-322.584h-23.208c-13.786 0-25-11.214-25-25v-76.278c0-13.786 11.214-25 25-25h23.208v-322.584h-23.208c-13.786 0-25-11.214-25-25v-23.208h-142.234c-8.284 0-15-6.716-15-15s6.716-15 15-15h142.234v-23.070c0-13.786 11.214-25 25-25h76.276c13.786 0 25 11.214 25 25v76.276c0 13.786-11.214 25-25 25h-23.070v322.586h23.070c13.786 0 25 11.214 25 25v76.278c0 13.786-11.214 25-25 25h-23.070v322.584zM478.862 32.276h66.278v-66.276h-66.278zM96.276-34h-66.276v66.276h66.276zM96.416 414.862h-66.278v66.278h66.276v-66.278zM96.276 863.724h-66.276v66.276h66.276zM545.138 863.724h-66.278v66.276h66.278zM994-34h-66.276v66.276h66.276zM994 414.862h-66.276v66.278h66.276zM927.724 930h66.276v-66.276h-66.276zM630.686 389.148h89.236v-11.866c0-10.504 5.84-19.944 15.242-24.634 3.922-1.956 8.132-2.92 12.318-2.92 5.844 0 11.64 1.88 16.53 5.564l93.916 70.716c6.972 5.248 10.972 13.264 10.972 21.992s-3.998 16.744-10.97 21.992l-93.918 70.718c-8.39 6.318-19.446 7.33-28.848 2.642-9.402-4.69-15.242-14.128-15.242-24.634v-11.866h-89.236c-15.18 0-27.53-12.35-27.53-27.53v-62.648c0.002-15.178 12.352-27.526 27.53-27.526zM633.156 476.852h101.764c8.284 0 15 6.716 15 15v21.912l87.34-65.764-87.34-65.764v21.912c0 8.284-6.716 15-15 15h-101.764zM374.994 389.148h18.32c15.178 0 27.528 12.35 27.528 27.53v62.646c0 15.18-12.35 27.53-27.53 27.53h-89.236v11.866c0 10.504-5.84 19.944-15.24 24.634s-20.454 3.676-28.85-2.642l-93.916-70.716c-6.972-5.248-10.972-13.264-10.972-21.992s3.998-16.744 10.97-21.994l93.918-70.716c4.892-3.684 10.684-5.564 16.53-5.564 4.184 0 8.394 0.964 12.316 2.92 9.402 4.69 15.242 14.13 15.242 24.634v11.864h11.992c8.284 0 15 6.716 15 15s-6.716 15-15 15h-26.992c-8.284 0-15-6.716-15-15v-21.912l-87.336 65.764 87.34 65.764v-21.912c0-8.284 6.716-15 15-15h101.764v-57.706h-15.848c-8.284 0-15-6.716-15-15 0-8.282 6.716-14.998 15-14.998z" />
<glyph unicode="&#xe92e;" glyph-name="optimization" d="M384 896h32v-32h-32zM160 896h32v-32h-32zM224 896h128v-32h-128zM288 0c35.344 0 64 28.656 64 64s-28.656 64-64 64-64-28.656-64-64 28.656-64 64-64zM288 96c17.672 0 32-14.328 32-32s-14.328-32-32-32-32 14.328-32 32 14.328 32 32 32zM688 624c-79.531 0-144-64.469-144-144s64.469-144 144-144 144 64.469 144 144c-0.094 79.492-64.508 143.906-144 144zM688 368c-61.859 0-112 50.141-112 112s50.141 112 112 112 112-50.141 112-112c-0.070-61.828-50.172-111.93-112-112zM688 544c-35.344 0-64-28.656-64-64s28.656-64 64-64 64 28.656 64 64-28.656 64-64 64zM688 448c-17.672 0-32 14.328-32 32s14.328 32 32 32 32-14.328 32-32-14.328-32-32-32zM1022.813 508.141l-0.953 11.477-67.734 16.641c-2.008 9.484-4.516 18.859-7.516 28.078l50.289 48.336-4.898 10.398c-8.047 17.008-17.508 33.313-28.273 48.734l-6.578 9.43-66.922-19.508c-6.461 7.18-13.297 14.016-20.484 20.484l19.508 66.922-9.43 6.578c-15.43 10.773-31.734 20.234-48.75 28.289l-10.398 4.914-48.336-50.289c-9.219 3-18.594 5.508-28.078 7.516l-16.641 67.734-11.477 0.953c-18.727 1.57-37.555 1.57-56.281 0l-11.477-0.953-16.641-67.734c-9.484-2.008-18.859-4.516-28.078-7.516l-27.664 28.766v144.609c0 26.508-21.492 48-48 48h-480c-26.508 0-48-21.492-48-48v-928c0-26.508 21.492-48 48-48h480c26.508 0 48 21.492 48 48v208.625l27.664 28.797c9.219-3.016 18.594-5.523 28.078-7.516l16.641-67.695 11.438-0.977c9.383-0.805 18.852-1.203 28.18-1.203s18.797 0.398 28.18 1.203l11.438 0.977 16.641 67.695c9.484 1.992 18.859 4.5 28.078 7.516l48.336-50.273 10.398 4.914c17.008 8.047 33.305 17.5 48.734 28.258l9.43 6.578-19.508 66.922c7.18 6.469 14.016 13.305 20.484 20.484l66.922-19.508 6.578 9.43c10.766 15.414 20.234 31.711 28.289 48.703l4.914 10.398-50.289 48.336c3.016 9.219 5.523 18.594 7.516 28.078l67.734 16.641 0.953 11.477c0.773 9.484 1.172 18.953 1.172 28.141s-0.398 18.656-1.188 28.141zM32 912c0 8.836 7.164 16 16 16h480c8.836 0 16-7.164 16-16v-80h-512zM32 800h512v-16.516c-16.672-7.922-32.664-17.211-47.805-27.773l-9.43-6.578 19.508-66.922c-7.18-6.469-14.016-13.305-20.484-20.484l-66.922 19.508-6.578-9.43c-10.773-15.422-20.234-31.727-28.289-48.734l-4.914-10.398 50.289-48.336c-3.008-9.219-5.516-18.594-7.516-28.078l-67.734-16.641-0.953-11.477c-0.773-9.484-1.172-18.953-1.172-28.141s0.398-18.656 1.188-28.141l0.953-11.477 67.734-16.656c2-9.484 4.508-18.852 7.516-28.063l-50.289-48.336 4.914-10.398c8.055-17.008 17.508-33.305 28.273-48.734l6.578-9.43 66.922 19.508c6.469-7.18 13.305-14.016 20.484-20.484l-19.508-66.922 9.43-6.578c6.25-4.367 12.797-8.367 19.289-12.289h-483.484zM544-16c0-8.836-7.164-16-16-16h-480c-8.836 0-16 7.164-16 16v176h512zM991.664 465.922l-65.328-16-1.758-10.336c-2.484-14.57-6.32-28.867-11.461-42.719l-3.664-9.844 48.516-46.625c-4.344-8.336-9.055-16.461-14.148-24.367l-64.586 18.82-6.703-8c-9.453-11.352-19.906-21.813-31.25-31.266l-8-6.703 18.813-64.594c-7.898-5.086-16.023-9.797-24.367-14.133l-46.609 48.469-9.82-3.633c-13.859-5.133-28.164-8.969-42.734-11.453l-10.336-1.766-16-65.328c-9.43-0.445-18.742-0.445-28.164 0l-16 65.328-10.336 1.766c-14.633 2.438-29 6.234-42.93 11.344l-9.82 3.633-46.609-48.469c-8.32 4.32-16.445 9.031-24.367 14.133l18.813 64.586-8 6.703c-11.336 9.453-21.797 19.922-31.242 31.266l-6.703 8-64.594-18.813c-5.086 7.883-9.805 16-14.148 24.367l48.516 46.625-3.758 9.883c-5.141 13.852-8.977 28.148-11.461 42.711l-1.758 10.336-65.328 16c-0.227 4.797-0.336 9.453-0.336 14.078s0.109 9.328 0.336 14.078l65.328 16 1.758 10.336c2.477 14.609 6.313 28.961 11.461 42.867l3.648 9.836-48.5 46.609c4.344 8.32 9.055 16.445 14.148 24.367l64.586-18.813 6.703 8c9.445 11.352 19.906 21.813 31.25 31.258l8 6.711-18.813 64.586c7.898 5.094 16.023 9.805 24.367 14.148l46.609-48.5 9.836 3.648c13.859 5.133 28.156 8.969 42.719 11.461l10.336 1.758 16 65.328c9.508 0.445 18.656 0.445 28.164 0l16-65.328 10.336-1.758c14.563-2.492 28.867-6.328 42.719-11.461l9.836-3.648 46.609 48.5c8.32-4.336 16.445-9.047 24.367-14.148l-18.813-64.586 8-6.711c11.352-9.438 21.813-19.898 31.266-31.242l6.703-8 64.594 18.813c5.086-7.906 9.797-16.023 14.141-24.367l-48.492-46.609 3.648-9.836c5.133-13.859 8.961-28.156 11.453-42.727l1.758-10.336 65.328-16c0.227-4.797 0.336-9.453 0.336-14.078s0.164-9.406-0.063-14.156z" />
<glyph unicode="&#xe92f;" glyph-name="responsive-design" d="M952 832h-248v56c-0.035 30.914-25.086 55.965-55.997 56h-272.003c-30.914-0.035-55.965-25.086-56-55.997v-56.003h-248c-30.914-0.035-55.965-25.086-56-55.997v-608.003c0.035-30.914 25.086-55.965 55.997-56h306.783l-22.84-80h-67.94c-8.837 0-16-7.163-16-16v0-48c0-8.837 7.163-16 16-16v0h448c8.837 0 16 7.163 16 16v0 48c0 8.837-7.163 16-16 16v0h-67.94l-22.84 80h306.78c30.914 0.035 55.965 25.086 56 55.997v608.003c-0.035 30.914-25.086 55.965-55.997 56h-0.003zM553.8 912l-5.34-16h-72.92l-5.34 16zM352 888c0.011 13.25 10.75 23.989 23.999 24h60.461l12.36-37.060c2.184-6.411 8.152-10.94 15.179-10.94 0 0 0.001 0 0.001 0h96c0 0 0.001 0 0.001 0 7.026 0 12.995 4.529 15.145 10.827l0.033 0.113 12.36 37.060h60.46c13.25-0.011 23.989-10.75 24-23.999v-464.001c-0.011-13.25-10.75-23.989-23.999-24h-272.001c-13.25 0.011-23.989 10.75-24 23.999v0.001zM720 0v-16h-416v16zM389.22 32l22.84 80h199.88l22.84-80zM976 168c-0.011-13.25-10.75-23.989-23.999-24h-880.001c-13.25 0.011-23.989 10.75-24 23.999v40.001h928zM976 240h-928v536c0.011 13.25 10.75 23.989 23.999 24h248.001v-376c0.035-30.914 25.086-55.965 55.997-56h72.003v-62c0-8.837 7.163-16 16-16s16 7.163 16 16v0 62h16v-32c0-8.837 7.163-16 16-16s16 7.163 16 16v0 32h16v-80c0-8.837 7.163-16 16-16s16 7.163 16 16v0 80h72c30.914 0.035 55.965 25.086 56 55.997v376.003h248c13.25-0.011 23.989-10.75 24-23.999v-0.001zM480 416h64c8.837 0 16 7.163 16 16s-7.163 16-16 16v0h-64c-8.837 0-16-7.163-16-16s7.163-16 16-16v0z" />
</font>
</defs>
</svg>
